M48
; DRILL file {KiCad (5.1.2)-2} date 2020/03/09 18:48:11
; FORMAT={3:3/ absolute / metric / suppress leading zeros}
; #@! TF.CreationDate,2020-03-09T18:48:11+09:00
; #@! TF.GenerationSoftware,Kicad,Pcbnew,(5.1.2)-2
FMAT,2
METRIC,TZ
T1C0.762
T2C0.800
T3C1.000
T4C1.100
T5C1.520
%
G90
G05
T1
X33020Y33020
X33020Y27940
X35560Y33020
X35560Y27940
X43180Y33020
X43180Y27940
T2
X-381Y9017
X-381Y7017
X-381Y5017
X-381Y3017
T3
X50800Y41275
X50800Y38735
X50800Y36195
X50800Y33655
X50800Y31115
X50800Y28575
X50800Y26035
X35560Y37465
X38100Y37465
X55880Y46355
X58420Y46355
X60960Y46355
X63500Y46355
X50800Y17145
X50800Y14605
X50800Y12065
X50800Y9525
X13970Y50800
X13970Y48260
X13970Y45720
X13970Y43180
X13970Y40640
X13970Y38100
X13970Y35560
X26670Y50800
X29210Y50800
X31750Y50800
X34290Y50800
X36830Y50800
X39370Y50800
X41910Y50800
X45720Y50800
X48260Y50800
X50800Y50800
X53340Y50800
X55880Y50800
X58420Y50800
X60960Y50800
X63500Y50800
X13970Y25400
X13970Y22860
X13970Y20320
X13970Y17780
X13970Y15240
X18821Y50825
X18821Y48285
X18821Y45745
X18821Y43205
X18821Y40665
X18821Y38125
X18821Y35585
X18821Y33045
X18821Y30505
X18821Y27965
X18821Y25425
X18821Y22885
X18821Y20345
X18821Y17805
X18821Y15265
X18821Y12725
X18821Y10185
X18821Y7645
X18821Y5105
X18821Y2565
X21361Y50825
X21361Y48285
X21361Y45745
X21361Y43205
X21361Y40665
X21361Y38125
X21361Y35585
X21361Y33045
X21361Y30505
X21361Y27965
X21361Y25425
X21361Y22885
X21361Y20345
X21361Y17805
X21361Y15265
X21361Y12725
X21361Y10185
X21361Y7645
X21361Y5105
X21361Y2565
X50800Y2540
X53340Y2540
X55880Y2540
X58420Y2540
X60960Y2540
X63500Y2540
X27940Y2540
X30480Y2540
X33020Y2540
X35560Y2540
X38100Y2540
X40640Y2540
X43180Y2540
X45720Y2540
X46482Y15367
X46482Y12827
X46482Y10287
X46482Y7747
T4
X5080Y2540
X15240Y2540
X27305Y34290
X27305Y24130
T5
X34290Y22225
X34290Y17145
T0
M30
