G04 #@! TF.GenerationSoftware,KiCad,Pcbnew,(5.1.2)-2*
G04 #@! TF.CreationDate,2020-03-20T23:36:52+09:00*
G04 #@! TF.ProjectId,simpleRTK2BpiHAT,73696d70-6c65-4525-944b-324270694841,rev?*
G04 #@! TF.SameCoordinates,PX69db1f0PY7882d48*
G04 #@! TF.FileFunction,Copper,L2,Bot*
G04 #@! TF.FilePolarity,Positive*
%FSLAX46Y46*%
G04 Gerber Fmt 4.6, Leading zero omitted, Abs format (unit mm)*
G04 Created by KiCad (PCBNEW (5.1.2)-2) date 2020-03-20 23:36:52*
%MOMM*%
%LPD*%
G04 APERTURE LIST*
%ADD10O,1.700000X1.700000*%
%ADD11R,1.700000X1.700000*%
%ADD12O,1.350000X1.350000*%
%ADD13R,1.350000X1.350000*%
%ADD14C,3.000000*%
%ADD15R,3.000000X3.000000*%
%ADD16C,1.524000*%
%ADD17R,1.524000X1.524000*%
%ADD18O,2.200000X2.200000*%
%ADD19R,2.200000X2.200000*%
%ADD20C,0.250000*%
%ADD21C,0.254000*%
G04 APERTURE END LIST*
D10*
X63500000Y46355000D03*
X60960000Y46355000D03*
X58420000Y46355000D03*
D11*
X55880000Y46355000D03*
D10*
X13970000Y15240000D03*
X13970000Y17780000D03*
X13970000Y20320000D03*
X13970000Y22860000D03*
D11*
X13970000Y25400000D03*
D10*
X46482000Y7747000D03*
X46482000Y10287000D03*
X46482000Y12827000D03*
D11*
X46482000Y15367000D03*
X50800000Y2540000D03*
D10*
X53340000Y2540000D03*
X55880000Y2540000D03*
X58420000Y2540000D03*
X60960000Y2540000D03*
X63500000Y2540000D03*
X50800000Y17145000D03*
X50800000Y14605000D03*
X50800000Y12065000D03*
D11*
X50800000Y9525000D03*
D10*
X18821400Y50825400D03*
X21361400Y50825400D03*
X18821400Y48285400D03*
X21361400Y48285400D03*
X18821400Y45745400D03*
X21361400Y45745400D03*
X18821400Y43205400D03*
X21361400Y43205400D03*
X18821400Y40665400D03*
X21361400Y40665400D03*
X18821400Y38125400D03*
X21361400Y38125400D03*
X18821400Y35585400D03*
X21361400Y35585400D03*
X18821400Y33045400D03*
X21361400Y33045400D03*
X18821400Y30505400D03*
X21361400Y30505400D03*
X18821400Y27965400D03*
X21361400Y27965400D03*
X18821400Y25425400D03*
X21361400Y25425400D03*
X18821400Y22885400D03*
X21361400Y22885400D03*
X18821400Y20345400D03*
X21361400Y20345400D03*
X18821400Y17805400D03*
X21361400Y17805400D03*
X18821400Y15265400D03*
X21361400Y15265400D03*
X18821400Y12725400D03*
X21361400Y12725400D03*
X18821400Y10185400D03*
X21361400Y10185400D03*
X18821400Y7645400D03*
X21361400Y7645400D03*
X18821400Y5105400D03*
X21361400Y5105400D03*
X18821400Y2565400D03*
D11*
X21361400Y2565400D03*
D10*
X13970000Y35560000D03*
X13970000Y38100000D03*
X13970000Y40640000D03*
X13970000Y43180000D03*
X13970000Y45720000D03*
X13970000Y48260000D03*
D11*
X13970000Y50800000D03*
D12*
X-381000Y3017000D03*
X-381000Y5017000D03*
X-381000Y7017000D03*
D13*
X-381000Y9017000D03*
D10*
X50800000Y41275000D03*
X50800000Y38735000D03*
X50800000Y36195000D03*
X50800000Y33655000D03*
X50800000Y31115000D03*
X50800000Y28575000D03*
D11*
X50800000Y26035000D03*
D10*
X35560000Y37465000D03*
D11*
X38100000Y37465000D03*
D10*
X41910000Y50800000D03*
X39370000Y50800000D03*
X36830000Y50800000D03*
X34290000Y50800000D03*
X31750000Y50800000D03*
X29210000Y50800000D03*
D11*
X26670000Y50800000D03*
D10*
X63500000Y50800000D03*
X60960000Y50800000D03*
X58420000Y50800000D03*
X55880000Y50800000D03*
X53340000Y50800000D03*
X50800000Y50800000D03*
X48260000Y50800000D03*
D11*
X45720000Y50800000D03*
D10*
X45720000Y2540000D03*
X43180000Y2540000D03*
X40640000Y2540000D03*
X38100000Y2540000D03*
X35560000Y2540000D03*
X33020000Y2540000D03*
X30480000Y2540000D03*
D11*
X27940000Y2540000D03*
D14*
X34290000Y22225000D03*
D15*
X34290000Y17145000D03*
D16*
X43180000Y27940000D03*
X43180000Y33020000D03*
X35560000Y27940000D03*
X35560000Y33020000D03*
X33020000Y27940000D03*
D17*
X33020000Y33020000D03*
D18*
X27305000Y34290000D03*
D19*
X27305000Y24130000D03*
D18*
X15240000Y2540000D03*
D19*
X5080000Y2540000D03*
D20*
X38100000Y2692400D02*
X38100000Y2540000D01*
X47331999Y9437001D02*
X47839999Y9437001D01*
X46482000Y10287000D02*
X47331999Y9437001D01*
X47839999Y9437001D02*
X48514000Y8763000D01*
X48514000Y8039998D02*
X44792002Y4318000D01*
X48514000Y8763000D02*
X48514000Y8039998D01*
X44792002Y4152002D02*
X43180000Y2540000D01*
X44792002Y4318000D02*
X44792002Y4152002D01*
X37465000Y4445000D02*
X35560000Y2540000D01*
X41445000Y4445000D02*
X39497000Y4445000D01*
X44874000Y7874000D02*
X41445000Y4445000D01*
X45974000Y7874000D02*
X44874000Y7874000D01*
X39835000Y4445000D02*
X39497000Y4445000D01*
X39497000Y4445000D02*
X37465000Y4445000D01*
X35560000Y37465000D02*
X35560000Y33020000D01*
X30480000Y37465000D02*
X35560000Y37465000D01*
X27305000Y34290000D02*
X30480000Y37465000D01*
X31750000Y24130000D02*
X35560000Y27940000D01*
X27305000Y24130000D02*
X31750000Y24130000D01*
X38100000Y30480000D02*
X38100000Y37465000D01*
X35560000Y27940000D02*
X38100000Y30480000D01*
X29210000Y33020000D02*
X33020000Y33020000D01*
X21590000Y25400000D02*
X24765000Y25400000D01*
X24765000Y25400000D02*
X24765000Y22225000D01*
X24765000Y28575000D02*
X29210000Y33020000D01*
X24765000Y25400000D02*
X24765000Y28575000D01*
X29845000Y17145000D02*
X34290000Y17145000D01*
X24765000Y22225000D02*
X29845000Y17145000D01*
X20414999Y14064999D02*
X19050000Y12700000D01*
X35756599Y14064999D02*
X20414999Y14064999D01*
X45186600Y23495000D02*
X35756599Y14064999D01*
X59055000Y23495000D02*
X45186600Y23495000D01*
X60960000Y25400000D02*
X59055000Y23495000D01*
X60960000Y46355000D02*
X60960000Y25400000D01*
X19050000Y10160000D02*
X20320000Y11430000D01*
X63500000Y48260000D02*
X60960000Y50800000D01*
X45745400Y21590000D02*
X35585400Y11430000D01*
X59690000Y21590000D02*
X45745400Y21590000D01*
X63500000Y25400000D02*
X59690000Y21590000D01*
X20320000Y11430000D02*
X35585400Y11430000D01*
X63500000Y48260000D02*
X63500000Y46355000D01*
X63500000Y25400000D02*
X63500000Y46355000D01*
X38100000Y7620000D02*
X21590000Y7620000D01*
X45974000Y15494000D02*
X38100000Y7620000D01*
X47371000Y15494000D02*
X50800000Y12065000D01*
X53975000Y12065000D02*
X50800000Y12065000D01*
X63500000Y2540000D02*
X53975000Y12065000D01*
X46609000Y15494000D02*
X46482000Y15367000D01*
X47371000Y15494000D02*
X46609000Y15494000D01*
X60960000Y2692400D02*
X60960000Y2540000D01*
X60110001Y3389999D02*
X60960000Y2540000D01*
X59784999Y3715001D02*
X60110001Y3389999D01*
X38735000Y5080000D02*
X46482000Y12827000D01*
X21590000Y5080000D02*
X38735000Y5080000D01*
X54324997Y3715001D02*
X54958999Y3715001D01*
X49624999Y8414999D02*
X54324997Y3715001D01*
X49624999Y9684001D02*
X49624999Y8414999D01*
X46482000Y12827000D02*
X49624999Y9684001D01*
X54412001Y3715001D02*
X54958999Y3715001D01*
X54958999Y3715001D02*
X59784999Y3715001D01*
D21*
G36*
X65149468Y51702440D02*
G01*
X65024310Y888051D01*
X41343544Y710000D01*
X-2292709Y710000D01*
X-2321862Y2687600D01*
X-1648910Y2687600D01*
X-1618238Y2586472D01*
X-1510473Y2353371D01*
X-1359303Y2145773D01*
X-1170537Y1971656D01*
X-951430Y1837711D01*
X-710401Y1749085D01*
X-508000Y1871915D01*
X-508000Y2890000D01*
X-254000Y2890000D01*
X-254000Y1871915D01*
X-51599Y1749085D01*
X189430Y1837711D01*
X408537Y1971656D01*
X597303Y2145773D01*
X748473Y2353371D01*
X856238Y2586472D01*
X886910Y2687600D01*
X763224Y2890000D01*
X-254000Y2890000D01*
X-508000Y2890000D01*
X-1525224Y2890000D01*
X-1648910Y2687600D01*
X-2321862Y2687600D01*
X-2385686Y7017000D01*
X-1697338Y7017000D01*
X-1672045Y6760195D01*
X-1597138Y6513259D01*
X-1475495Y6285682D01*
X-1311792Y6086208D01*
X-1227461Y6017000D01*
X-1311792Y5947792D01*
X-1475495Y5748318D01*
X-1597138Y5520741D01*
X-1672045Y5273805D01*
X-1697338Y5017000D01*
X-1672045Y4760195D01*
X-1597138Y4513259D01*
X-1475495Y4285682D01*
X-1311792Y4086208D01*
X-1223352Y4013628D01*
X-1359303Y3888227D01*
X-1510473Y3680629D01*
X-1618238Y3447528D01*
X-1648910Y3346400D01*
X-1525224Y3144000D01*
X-508000Y3144000D01*
X-508000Y3164000D01*
X-254000Y3164000D01*
X-254000Y3144000D01*
X763224Y3144000D01*
X886910Y3346400D01*
X856238Y3447528D01*
X767257Y3640000D01*
X3341928Y3640000D01*
X3341928Y1440000D01*
X3354188Y1315518D01*
X3390498Y1195820D01*
X3449463Y1085506D01*
X3528815Y988815D01*
X3625506Y909463D01*
X3735820Y850498D01*
X3855518Y814188D01*
X3980000Y801928D01*
X6180000Y801928D01*
X6304482Y814188D01*
X6424180Y850498D01*
X6534494Y909463D01*
X6631185Y988815D01*
X6710537Y1085506D01*
X6769502Y1195820D01*
X6805812Y1315518D01*
X6818072Y1440000D01*
X6818072Y2540000D01*
X13496606Y2540000D01*
X13530105Y2199881D01*
X13629314Y1872832D01*
X13790421Y1571422D01*
X14007234Y1307234D01*
X14271422Y1090421D01*
X14572832Y929314D01*
X14899881Y830105D01*
X15154775Y805000D01*
X15325225Y805000D01*
X15580119Y830105D01*
X15907168Y929314D01*
X16208578Y1090421D01*
X16472766Y1307234D01*
X16689579Y1571422D01*
X16850686Y1872832D01*
X16949895Y2199881D01*
X16983394Y2540000D01*
X16949895Y2880119D01*
X16850686Y3207168D01*
X16689579Y3508578D01*
X16472766Y3772766D01*
X16208578Y3989579D01*
X15907168Y4150686D01*
X15580119Y4249895D01*
X15325225Y4275000D01*
X15154775Y4275000D01*
X14899881Y4249895D01*
X14572832Y4150686D01*
X14271422Y3989579D01*
X14007234Y3772766D01*
X13790421Y3508578D01*
X13629314Y3207168D01*
X13530105Y2880119D01*
X13496606Y2540000D01*
X6818072Y2540000D01*
X6818072Y3640000D01*
X6805812Y3764482D01*
X6769502Y3884180D01*
X6710537Y3994494D01*
X6631185Y4091185D01*
X6534494Y4170537D01*
X6424180Y4229502D01*
X6304482Y4265812D01*
X6180000Y4278072D01*
X3980000Y4278072D01*
X3855518Y4265812D01*
X3735820Y4229502D01*
X3625506Y4170537D01*
X3528815Y4091185D01*
X3449463Y3994494D01*
X3390498Y3884180D01*
X3354188Y3764482D01*
X3341928Y3640000D01*
X767257Y3640000D01*
X748473Y3680629D01*
X597303Y3888227D01*
X461352Y4013628D01*
X549792Y4086208D01*
X713495Y4285682D01*
X835138Y4513259D01*
X910045Y4760195D01*
X935338Y5017000D01*
X910045Y5273805D01*
X835138Y5520741D01*
X713495Y5748318D01*
X549792Y5947792D01*
X465461Y6017000D01*
X549792Y6086208D01*
X713495Y6285682D01*
X835138Y6513259D01*
X910045Y6760195D01*
X935338Y7017000D01*
X910045Y7273805D01*
X835138Y7520741D01*
X713495Y7748318D01*
X656369Y7817926D01*
X745185Y7890815D01*
X824537Y7987506D01*
X883502Y8097820D01*
X919812Y8217518D01*
X932072Y8342000D01*
X932072Y9692000D01*
X919812Y9816482D01*
X883502Y9936180D01*
X824537Y10046494D01*
X745185Y10143185D01*
X648494Y10222537D01*
X538180Y10281502D01*
X418482Y10317812D01*
X294000Y10330072D01*
X-1056000Y10330072D01*
X-1180482Y10317812D01*
X-1300180Y10281502D01*
X-1410494Y10222537D01*
X-1507185Y10143185D01*
X-1586537Y10046494D01*
X-1645502Y9936180D01*
X-1681812Y9816482D01*
X-1694072Y9692000D01*
X-1694072Y8342000D01*
X-1681812Y8217518D01*
X-1645502Y8097820D01*
X-1586537Y7987506D01*
X-1507185Y7890815D01*
X-1418369Y7817926D01*
X-1475495Y7748318D01*
X-1597138Y7520741D01*
X-1672045Y7273805D01*
X-1697338Y7017000D01*
X-2385686Y7017000D01*
X-2501647Y14883110D01*
X12528524Y14883110D01*
X12573175Y14735901D01*
X12698359Y14473080D01*
X12872412Y14239731D01*
X13088645Y14044822D01*
X13338748Y13895843D01*
X13613109Y13798519D01*
X13843000Y13919186D01*
X13843000Y15113000D01*
X14097000Y15113000D01*
X14097000Y13919186D01*
X14326891Y13798519D01*
X14601252Y13895843D01*
X14851355Y14044822D01*
X15067588Y14239731D01*
X15241641Y14473080D01*
X15366825Y14735901D01*
X15411476Y14883110D01*
X15290155Y15113000D01*
X14097000Y15113000D01*
X13843000Y15113000D01*
X12649845Y15113000D01*
X12528524Y14883110D01*
X-2501647Y14883110D01*
X-2619243Y22860000D01*
X12477815Y22860000D01*
X12506487Y22568889D01*
X12591401Y22288966D01*
X12729294Y22030986D01*
X12914866Y21804866D01*
X13140986Y21619294D01*
X13195791Y21590000D01*
X13140986Y21560706D01*
X12914866Y21375134D01*
X12729294Y21149014D01*
X12591401Y20891034D01*
X12506487Y20611111D01*
X12477815Y20320000D01*
X12506487Y20028889D01*
X12591401Y19748966D01*
X12729294Y19490986D01*
X12914866Y19264866D01*
X13140986Y19079294D01*
X13195791Y19050000D01*
X13140986Y19020706D01*
X12914866Y18835134D01*
X12729294Y18609014D01*
X12591401Y18351034D01*
X12506487Y18071111D01*
X12477815Y17780000D01*
X12506487Y17488889D01*
X12591401Y17208966D01*
X12729294Y16950986D01*
X12914866Y16724866D01*
X13140986Y16539294D01*
X13205523Y16504799D01*
X13088645Y16435178D01*
X12872412Y16240269D01*
X12698359Y16006920D01*
X12573175Y15744099D01*
X12528524Y15596890D01*
X12649845Y15367000D01*
X13843000Y15367000D01*
X13843000Y15387000D01*
X14097000Y15387000D01*
X14097000Y15367000D01*
X15290155Y15367000D01*
X15411476Y15596890D01*
X15366825Y15744099D01*
X15241641Y16006920D01*
X15067588Y16240269D01*
X14851355Y16435178D01*
X14734477Y16504799D01*
X14799014Y16539294D01*
X15025134Y16724866D01*
X15210706Y16950986D01*
X15348599Y17208966D01*
X15433513Y17488889D01*
X15462185Y17780000D01*
X15433513Y18071111D01*
X15348599Y18351034D01*
X15210706Y18609014D01*
X15025134Y18835134D01*
X14799014Y19020706D01*
X14744209Y19050000D01*
X14799014Y19079294D01*
X15025134Y19264866D01*
X15210706Y19490986D01*
X15348599Y19748966D01*
X15433513Y20028889D01*
X15462185Y20320000D01*
X15433513Y20611111D01*
X15348599Y20891034D01*
X15210706Y21149014D01*
X15025134Y21375134D01*
X14799014Y21560706D01*
X14744209Y21590000D01*
X14799014Y21619294D01*
X15025134Y21804866D01*
X15210706Y22030986D01*
X15348599Y22288966D01*
X15433513Y22568889D01*
X15462185Y22860000D01*
X15433513Y23151111D01*
X15348599Y23431034D01*
X15210706Y23689014D01*
X15025134Y23915134D01*
X14995313Y23939607D01*
X15064180Y23960498D01*
X15174494Y24019463D01*
X15271185Y24098815D01*
X15350537Y24195506D01*
X15409502Y24305820D01*
X15445812Y24425518D01*
X15458072Y24550000D01*
X15458072Y26250000D01*
X15445812Y26374482D01*
X15409502Y26494180D01*
X15350537Y26604494D01*
X15271185Y26701185D01*
X15174494Y26780537D01*
X15064180Y26839502D01*
X14944482Y26875812D01*
X14820000Y26888072D01*
X13120000Y26888072D01*
X12995518Y26875812D01*
X12875820Y26839502D01*
X12765506Y26780537D01*
X12668815Y26701185D01*
X12589463Y26604494D01*
X12530498Y26494180D01*
X12494188Y26374482D01*
X12481928Y26250000D01*
X12481928Y24550000D01*
X12494188Y24425518D01*
X12530498Y24305820D01*
X12589463Y24195506D01*
X12668815Y24098815D01*
X12765506Y24019463D01*
X12875820Y23960498D01*
X12944687Y23939607D01*
X12914866Y23915134D01*
X12729294Y23689014D01*
X12591401Y23431034D01*
X12506487Y23151111D01*
X12477815Y22860000D01*
X-2619243Y22860000D01*
X-3046071Y51813103D01*
X2537178Y51689031D01*
X2562003Y51690921D01*
X2585982Y51697617D01*
X2608194Y51708862D01*
X2627785Y51724224D01*
X2644003Y51743114D01*
X2656224Y51764804D01*
X2663979Y51788462D01*
X2666969Y51813178D01*
X2665079Y51838003D01*
X2658383Y51861982D01*
X2647138Y51884194D01*
X2631776Y51903785D01*
X2612886Y51920003D01*
X2591196Y51932224D01*
X2567550Y51939976D01*
X2533610Y51947518D01*
X12580361Y51987465D01*
X12530498Y51894180D01*
X12494188Y51774482D01*
X12481928Y51650000D01*
X12481928Y49950000D01*
X12494188Y49825518D01*
X12530498Y49705820D01*
X12589463Y49595506D01*
X12668815Y49498815D01*
X12765506Y49419463D01*
X12875820Y49360498D01*
X12944687Y49339607D01*
X12914866Y49315134D01*
X12729294Y49089014D01*
X12591401Y48831034D01*
X12506487Y48551111D01*
X12477815Y48260000D01*
X12506487Y47968889D01*
X12591401Y47688966D01*
X12729294Y47430986D01*
X12914866Y47204866D01*
X13140986Y47019294D01*
X13195791Y46990000D01*
X13140986Y46960706D01*
X12914866Y46775134D01*
X12729294Y46549014D01*
X12591401Y46291034D01*
X12506487Y46011111D01*
X12477815Y45720000D01*
X12506487Y45428889D01*
X12591401Y45148966D01*
X12729294Y44890986D01*
X12914866Y44664866D01*
X13140986Y44479294D01*
X13195791Y44450000D01*
X13140986Y44420706D01*
X12914866Y44235134D01*
X12729294Y44009014D01*
X12591401Y43751034D01*
X12506487Y43471111D01*
X12477815Y43180000D01*
X12506487Y42888889D01*
X12591401Y42608966D01*
X12729294Y42350986D01*
X12914866Y42124866D01*
X13140986Y41939294D01*
X13195791Y41910000D01*
X13140986Y41880706D01*
X12914866Y41695134D01*
X12729294Y41469014D01*
X12591401Y41211034D01*
X12506487Y40931111D01*
X12477815Y40640000D01*
X12506487Y40348889D01*
X12591401Y40068966D01*
X12729294Y39810986D01*
X12914866Y39584866D01*
X13140986Y39399294D01*
X13195791Y39370000D01*
X13140986Y39340706D01*
X12914866Y39155134D01*
X12729294Y38929014D01*
X12591401Y38671034D01*
X12506487Y38391111D01*
X12477815Y38100000D01*
X12506487Y37808889D01*
X12591401Y37528966D01*
X12729294Y37270986D01*
X12914866Y37044866D01*
X13140986Y36859294D01*
X13195791Y36830000D01*
X13140986Y36800706D01*
X12914866Y36615134D01*
X12729294Y36389014D01*
X12591401Y36131034D01*
X12506487Y35851111D01*
X12477815Y35560000D01*
X12506487Y35268889D01*
X12591401Y34988966D01*
X12729294Y34730986D01*
X12914866Y34504866D01*
X13140986Y34319294D01*
X13398966Y34181401D01*
X13678889Y34096487D01*
X13897050Y34075000D01*
X14042950Y34075000D01*
X14261111Y34096487D01*
X14541034Y34181401D01*
X14799014Y34319294D01*
X15025134Y34504866D01*
X15210706Y34730986D01*
X15348599Y34988966D01*
X15433513Y35268889D01*
X15462185Y35560000D01*
X15433513Y35851111D01*
X15348599Y36131034D01*
X15210706Y36389014D01*
X15025134Y36615134D01*
X14799014Y36800706D01*
X14744209Y36830000D01*
X14799014Y36859294D01*
X15025134Y37044866D01*
X15210706Y37270986D01*
X15348599Y37528966D01*
X15433513Y37808889D01*
X15462185Y38100000D01*
X15433513Y38391111D01*
X15348599Y38671034D01*
X15210706Y38929014D01*
X15025134Y39155134D01*
X14799014Y39340706D01*
X14744209Y39370000D01*
X14799014Y39399294D01*
X15025134Y39584866D01*
X15210706Y39810986D01*
X15348599Y40068966D01*
X15433513Y40348889D01*
X15462185Y40640000D01*
X15433513Y40931111D01*
X15348599Y41211034D01*
X15210706Y41469014D01*
X15025134Y41695134D01*
X14799014Y41880706D01*
X14744209Y41910000D01*
X14799014Y41939294D01*
X15025134Y42124866D01*
X15210706Y42350986D01*
X15348599Y42608966D01*
X15433513Y42888889D01*
X15462185Y43180000D01*
X15433513Y43471111D01*
X15348599Y43751034D01*
X15210706Y44009014D01*
X15025134Y44235134D01*
X14799014Y44420706D01*
X14744209Y44450000D01*
X14799014Y44479294D01*
X15025134Y44664866D01*
X15210706Y44890986D01*
X15348599Y45148966D01*
X15433513Y45428889D01*
X15462185Y45720000D01*
X15433513Y46011111D01*
X15348599Y46291034D01*
X15210706Y46549014D01*
X15025134Y46775134D01*
X14799014Y46960706D01*
X14744209Y46990000D01*
X14799014Y47019294D01*
X15025134Y47204866D01*
X15210706Y47430986D01*
X15348599Y47688966D01*
X15433513Y47968889D01*
X15462185Y48260000D01*
X15433513Y48551111D01*
X15348599Y48831034D01*
X15210706Y49089014D01*
X15025134Y49315134D01*
X14995313Y49339607D01*
X15064180Y49360498D01*
X15174494Y49419463D01*
X15271185Y49498815D01*
X15350537Y49595506D01*
X15409502Y49705820D01*
X15445812Y49825518D01*
X15458072Y49950000D01*
X15458072Y51650000D01*
X15445812Y51774482D01*
X15409502Y51894180D01*
X15353745Y51998493D01*
X17922444Y52008706D01*
X17766266Y51880534D01*
X17580694Y51654414D01*
X17442801Y51396434D01*
X17357887Y51116511D01*
X17329215Y50825400D01*
X17357887Y50534289D01*
X17442801Y50254366D01*
X17580694Y49996386D01*
X17766266Y49770266D01*
X17992386Y49584694D01*
X18047191Y49555400D01*
X17992386Y49526106D01*
X17766266Y49340534D01*
X17580694Y49114414D01*
X17442801Y48856434D01*
X17357887Y48576511D01*
X17329215Y48285400D01*
X17357887Y47994289D01*
X17442801Y47714366D01*
X17580694Y47456386D01*
X17766266Y47230266D01*
X17992386Y47044694D01*
X18047191Y47015400D01*
X17992386Y46986106D01*
X17766266Y46800534D01*
X17580694Y46574414D01*
X17442801Y46316434D01*
X17357887Y46036511D01*
X17329215Y45745400D01*
X17357887Y45454289D01*
X17442801Y45174366D01*
X17580694Y44916386D01*
X17766266Y44690266D01*
X17992386Y44504694D01*
X18056923Y44470199D01*
X17940045Y44400578D01*
X17723812Y44205669D01*
X17549759Y43972320D01*
X17424575Y43709499D01*
X17379924Y43562290D01*
X17501245Y43332400D01*
X18694400Y43332400D01*
X18694400Y43352400D01*
X18948400Y43352400D01*
X18948400Y43332400D01*
X18968400Y43332400D01*
X18968400Y43078400D01*
X18948400Y43078400D01*
X18948400Y43058400D01*
X18694400Y43058400D01*
X18694400Y43078400D01*
X17501245Y43078400D01*
X17379924Y42848510D01*
X17424575Y42701301D01*
X17549759Y42438480D01*
X17723812Y42205131D01*
X17940045Y42010222D01*
X18056923Y41940601D01*
X17992386Y41906106D01*
X17766266Y41720534D01*
X17580694Y41494414D01*
X17442801Y41236434D01*
X17357887Y40956511D01*
X17329215Y40665400D01*
X17357887Y40374289D01*
X17442801Y40094366D01*
X17580694Y39836386D01*
X17766266Y39610266D01*
X17992386Y39424694D01*
X18056923Y39390199D01*
X17940045Y39320578D01*
X17723812Y39125669D01*
X17549759Y38892320D01*
X17424575Y38629499D01*
X17379924Y38482290D01*
X17501245Y38252400D01*
X18694400Y38252400D01*
X18694400Y38272400D01*
X18948400Y38272400D01*
X18948400Y38252400D01*
X18968400Y38252400D01*
X18968400Y37998400D01*
X18948400Y37998400D01*
X18948400Y37978400D01*
X18694400Y37978400D01*
X18694400Y37998400D01*
X17501245Y37998400D01*
X17379924Y37768510D01*
X17424575Y37621301D01*
X17549759Y37358480D01*
X17723812Y37125131D01*
X17940045Y36930222D01*
X18056923Y36860601D01*
X17992386Y36826106D01*
X17766266Y36640534D01*
X17580694Y36414414D01*
X17442801Y36156434D01*
X17357887Y35876511D01*
X17329215Y35585400D01*
X17357887Y35294289D01*
X17442801Y35014366D01*
X17580694Y34756386D01*
X17766266Y34530266D01*
X17992386Y34344694D01*
X18047191Y34315400D01*
X17992386Y34286106D01*
X17766266Y34100534D01*
X17580694Y33874414D01*
X17442801Y33616434D01*
X17357887Y33336511D01*
X17329215Y33045400D01*
X17357887Y32754289D01*
X17442801Y32474366D01*
X17580694Y32216386D01*
X17766266Y31990266D01*
X17992386Y31804694D01*
X18047191Y31775400D01*
X17992386Y31746106D01*
X17766266Y31560534D01*
X17580694Y31334414D01*
X17442801Y31076434D01*
X17357887Y30796511D01*
X17329215Y30505400D01*
X17357887Y30214289D01*
X17442801Y29934366D01*
X17580694Y29676386D01*
X17766266Y29450266D01*
X17992386Y29264694D01*
X18047191Y29235400D01*
X17992386Y29206106D01*
X17766266Y29020534D01*
X17580694Y28794414D01*
X17442801Y28536434D01*
X17357887Y28256511D01*
X17329215Y27965400D01*
X17357887Y27674289D01*
X17442801Y27394366D01*
X17580694Y27136386D01*
X17766266Y26910266D01*
X17992386Y26724694D01*
X18056923Y26690199D01*
X17940045Y26620578D01*
X17723812Y26425669D01*
X17549759Y26192320D01*
X17424575Y25929499D01*
X17379924Y25782290D01*
X17501245Y25552400D01*
X18694400Y25552400D01*
X18694400Y25572400D01*
X18948400Y25572400D01*
X18948400Y25552400D01*
X18968400Y25552400D01*
X18968400Y25298400D01*
X18948400Y25298400D01*
X18948400Y25278400D01*
X18694400Y25278400D01*
X18694400Y25298400D01*
X17501245Y25298400D01*
X17379924Y25068510D01*
X17424575Y24921301D01*
X17549759Y24658480D01*
X17723812Y24425131D01*
X17940045Y24230222D01*
X18056923Y24160601D01*
X17992386Y24126106D01*
X17766266Y23940534D01*
X17580694Y23714414D01*
X17442801Y23456434D01*
X17357887Y23176511D01*
X17329215Y22885400D01*
X17357887Y22594289D01*
X17442801Y22314366D01*
X17580694Y22056386D01*
X17766266Y21830266D01*
X17992386Y21644694D01*
X18047191Y21615400D01*
X17992386Y21586106D01*
X17766266Y21400534D01*
X17580694Y21174414D01*
X17442801Y20916434D01*
X17357887Y20636511D01*
X17329215Y20345400D01*
X17357887Y20054289D01*
X17442801Y19774366D01*
X17580694Y19516386D01*
X17766266Y19290266D01*
X17992386Y19104694D01*
X18056923Y19070199D01*
X17940045Y19000578D01*
X17723812Y18805669D01*
X17549759Y18572320D01*
X17424575Y18309499D01*
X17379924Y18162290D01*
X17501245Y17932400D01*
X18694400Y17932400D01*
X18694400Y17952400D01*
X18948400Y17952400D01*
X18948400Y17932400D01*
X18968400Y17932400D01*
X18968400Y17678400D01*
X18948400Y17678400D01*
X18948400Y17658400D01*
X18694400Y17658400D01*
X18694400Y17678400D01*
X17501245Y17678400D01*
X17379924Y17448510D01*
X17424575Y17301301D01*
X17549759Y17038480D01*
X17723812Y16805131D01*
X17940045Y16610222D01*
X18056923Y16540601D01*
X17992386Y16506106D01*
X17766266Y16320534D01*
X17580694Y16094414D01*
X17442801Y15836434D01*
X17357887Y15556511D01*
X17329215Y15265400D01*
X17357887Y14974289D01*
X17442801Y14694366D01*
X17580694Y14436386D01*
X17766266Y14210266D01*
X17992386Y14024694D01*
X18047191Y13995400D01*
X17992386Y13966106D01*
X17766266Y13780534D01*
X17580694Y13554414D01*
X17442801Y13296434D01*
X17357887Y13016511D01*
X17329215Y12725400D01*
X17357887Y12434289D01*
X17442801Y12154366D01*
X17580694Y11896386D01*
X17766266Y11670266D01*
X17992386Y11484694D01*
X18047191Y11455400D01*
X17992386Y11426106D01*
X17766266Y11240534D01*
X17580694Y11014414D01*
X17442801Y10756434D01*
X17357887Y10476511D01*
X17329215Y10185400D01*
X17357887Y9894289D01*
X17442801Y9614366D01*
X17580694Y9356386D01*
X17766266Y9130266D01*
X17992386Y8944694D01*
X18056923Y8910199D01*
X17940045Y8840578D01*
X17723812Y8645669D01*
X17549759Y8412320D01*
X17424575Y8149499D01*
X17379924Y8002290D01*
X17501245Y7772400D01*
X18694400Y7772400D01*
X18694400Y7792400D01*
X18948400Y7792400D01*
X18948400Y7772400D01*
X18968400Y7772400D01*
X18968400Y7518400D01*
X18948400Y7518400D01*
X18948400Y7498400D01*
X18694400Y7498400D01*
X18694400Y7518400D01*
X17501245Y7518400D01*
X17379924Y7288510D01*
X17424575Y7141301D01*
X17549759Y6878480D01*
X17723812Y6645131D01*
X17940045Y6450222D01*
X18056923Y6380601D01*
X17992386Y6346106D01*
X17766266Y6160534D01*
X17580694Y5934414D01*
X17442801Y5676434D01*
X17357887Y5396511D01*
X17329215Y5105400D01*
X17357887Y4814289D01*
X17442801Y4534366D01*
X17580694Y4276386D01*
X17766266Y4050266D01*
X17992386Y3864694D01*
X18047191Y3835400D01*
X17992386Y3806106D01*
X17766266Y3620534D01*
X17580694Y3394414D01*
X17442801Y3136434D01*
X17357887Y2856511D01*
X17329215Y2565400D01*
X17357887Y2274289D01*
X17442801Y1994366D01*
X17580694Y1736386D01*
X17766266Y1510266D01*
X17992386Y1324694D01*
X18250366Y1186801D01*
X18530289Y1101887D01*
X18748450Y1080400D01*
X18894350Y1080400D01*
X19112511Y1101887D01*
X19392434Y1186801D01*
X19650414Y1324694D01*
X19876534Y1510266D01*
X19901007Y1540087D01*
X19921898Y1471220D01*
X19980863Y1360906D01*
X20060215Y1264215D01*
X20156906Y1184863D01*
X20267220Y1125898D01*
X20386918Y1089588D01*
X20511400Y1077328D01*
X22211400Y1077328D01*
X22335882Y1089588D01*
X22455580Y1125898D01*
X22565894Y1184863D01*
X22662585Y1264215D01*
X22741937Y1360906D01*
X22800902Y1471220D01*
X22837212Y1590918D01*
X22849472Y1715400D01*
X22849472Y3415400D01*
X22837212Y3539882D01*
X22800902Y3659580D01*
X22741937Y3769894D01*
X22662585Y3866585D01*
X22565894Y3945937D01*
X22455580Y4004902D01*
X22386713Y4025793D01*
X22416534Y4050266D01*
X22602106Y4276386D01*
X22625418Y4320000D01*
X36265198Y4320000D01*
X35925995Y3980797D01*
X35851111Y4003513D01*
X35632950Y4025000D01*
X35487050Y4025000D01*
X35268889Y4003513D01*
X34988966Y3918599D01*
X34730986Y3780706D01*
X34504866Y3595134D01*
X34319294Y3369014D01*
X34290000Y3314209D01*
X34260706Y3369014D01*
X34075134Y3595134D01*
X33849014Y3780706D01*
X33591034Y3918599D01*
X33311111Y4003513D01*
X33092950Y4025000D01*
X32947050Y4025000D01*
X32728889Y4003513D01*
X32448966Y3918599D01*
X32190986Y3780706D01*
X31964866Y3595134D01*
X31779294Y3369014D01*
X31750000Y3314209D01*
X31720706Y3369014D01*
X31535134Y3595134D01*
X31309014Y3780706D01*
X31051034Y3918599D01*
X30771111Y4003513D01*
X30552950Y4025000D01*
X30407050Y4025000D01*
X30188889Y4003513D01*
X29908966Y3918599D01*
X29650986Y3780706D01*
X29424866Y3595134D01*
X29400393Y3565313D01*
X29379502Y3634180D01*
X29320537Y3744494D01*
X29241185Y3841185D01*
X29144494Y3920537D01*
X29034180Y3979502D01*
X28914482Y4015812D01*
X28790000Y4028072D01*
X27090000Y4028072D01*
X26965518Y4015812D01*
X26845820Y3979502D01*
X26735506Y3920537D01*
X26638815Y3841185D01*
X26559463Y3744494D01*
X26500498Y3634180D01*
X26464188Y3514482D01*
X26451928Y3390000D01*
X26451928Y1690000D01*
X26464188Y1565518D01*
X26500498Y1445820D01*
X26559463Y1335506D01*
X26638815Y1238815D01*
X26735506Y1159463D01*
X26845820Y1100498D01*
X26965518Y1064188D01*
X27090000Y1051928D01*
X28790000Y1051928D01*
X28914482Y1064188D01*
X29034180Y1100498D01*
X29144494Y1159463D01*
X29241185Y1238815D01*
X29320537Y1335506D01*
X29379502Y1445820D01*
X29400393Y1514687D01*
X29424866Y1484866D01*
X29650986Y1299294D01*
X29908966Y1161401D01*
X30188889Y1076487D01*
X30407050Y1055000D01*
X30552950Y1055000D01*
X30771111Y1076487D01*
X31051034Y1161401D01*
X31309014Y1299294D01*
X31535134Y1484866D01*
X31720706Y1710986D01*
X31750000Y1765791D01*
X31779294Y1710986D01*
X31964866Y1484866D01*
X32190986Y1299294D01*
X32448966Y1161401D01*
X32728889Y1076487D01*
X32947050Y1055000D01*
X33092950Y1055000D01*
X33311111Y1076487D01*
X33591034Y1161401D01*
X33849014Y1299294D01*
X34075134Y1484866D01*
X34260706Y1710986D01*
X34290000Y1765791D01*
X34319294Y1710986D01*
X34504866Y1484866D01*
X34730986Y1299294D01*
X34988966Y1161401D01*
X35268889Y1076487D01*
X35487050Y1055000D01*
X35632950Y1055000D01*
X35851111Y1076487D01*
X36131034Y1161401D01*
X36389014Y1299294D01*
X36615134Y1484866D01*
X36800706Y1710986D01*
X36830000Y1765791D01*
X36859294Y1710986D01*
X37044866Y1484866D01*
X37270986Y1299294D01*
X37528966Y1161401D01*
X37808889Y1076487D01*
X38027050Y1055000D01*
X38172950Y1055000D01*
X38391111Y1076487D01*
X38671034Y1161401D01*
X38929014Y1299294D01*
X39155134Y1484866D01*
X39340706Y1710986D01*
X39375201Y1775523D01*
X39444822Y1658645D01*
X39639731Y1442412D01*
X39873080Y1268359D01*
X40135901Y1143175D01*
X40283110Y1098524D01*
X40513000Y1219845D01*
X40513000Y2413000D01*
X40767000Y2413000D01*
X40767000Y1219845D01*
X40996890Y1098524D01*
X41144099Y1143175D01*
X41406920Y1268359D01*
X41640269Y1442412D01*
X41835178Y1658645D01*
X41910000Y1784255D01*
X41984822Y1658645D01*
X42179731Y1442412D01*
X42413080Y1268359D01*
X42675901Y1143175D01*
X42823110Y1098524D01*
X43053000Y1219845D01*
X43053000Y2413000D01*
X40767000Y2413000D01*
X40513000Y2413000D01*
X40493000Y2413000D01*
X40493000Y2667000D01*
X40513000Y2667000D01*
X40513000Y2687000D01*
X40767000Y2687000D01*
X40767000Y2667000D01*
X43053000Y2667000D01*
X43053000Y3860155D01*
X43307000Y3860155D01*
X43307000Y2667000D01*
X43327000Y2667000D01*
X43327000Y2413000D01*
X43307000Y2413000D01*
X43307000Y1219845D01*
X43536890Y1098524D01*
X43684099Y1143175D01*
X43946920Y1268359D01*
X44180269Y1442412D01*
X44375178Y1658645D01*
X44444799Y1775523D01*
X44479294Y1710986D01*
X44664866Y1484866D01*
X44890986Y1299294D01*
X45148966Y1161401D01*
X45428889Y1076487D01*
X45647050Y1055000D01*
X45792950Y1055000D01*
X46011111Y1076487D01*
X46291034Y1161401D01*
X46549014Y1299294D01*
X46775134Y1484866D01*
X46960706Y1710986D01*
X47098599Y1968966D01*
X47183513Y2248889D01*
X47212185Y2540000D01*
X47183513Y2831111D01*
X47098599Y3111034D01*
X46960706Y3369014D01*
X46775134Y3595134D01*
X46549014Y3780706D01*
X46291034Y3918599D01*
X46011111Y4003513D01*
X45792950Y4025000D01*
X45647050Y4025000D01*
X45428889Y4003513D01*
X45148966Y3918599D01*
X44890986Y3780706D01*
X44664866Y3595134D01*
X44479294Y3369014D01*
X44444799Y3304477D01*
X44375178Y3421355D01*
X44180269Y3637588D01*
X43946920Y3811641D01*
X43684099Y3936825D01*
X43536890Y3981476D01*
X43307000Y3860155D01*
X43053000Y3860155D01*
X42823110Y3981476D01*
X42675901Y3936825D01*
X42413080Y3811641D01*
X42179731Y3637588D01*
X41984822Y3421355D01*
X41910000Y3295745D01*
X41835178Y3421355D01*
X41640269Y3637588D01*
X41565697Y3693211D01*
X41593986Y3695997D01*
X41737247Y3739454D01*
X41869276Y3810026D01*
X41985001Y3904999D01*
X42008804Y3934003D01*
X45154733Y7079931D01*
X45241294Y6917986D01*
X45426866Y6691866D01*
X45652986Y6506294D01*
X45910966Y6368401D01*
X46190889Y6283487D01*
X46409050Y6262000D01*
X46554950Y6262000D01*
X46773111Y6283487D01*
X47053034Y6368401D01*
X47311014Y6506294D01*
X47537134Y6691866D01*
X47722706Y6917986D01*
X47860599Y7175966D01*
X47945513Y7455889D01*
X47974185Y7747000D01*
X47945513Y8038111D01*
X47860599Y8318034D01*
X47722706Y8576014D01*
X47537134Y8802134D01*
X47311014Y8987706D01*
X47246477Y9022201D01*
X47363355Y9091822D01*
X47579588Y9286731D01*
X47753641Y9520080D01*
X47878825Y9782901D01*
X47923476Y9930110D01*
X47802156Y10159998D01*
X47967000Y10159998D01*
X47967000Y10267199D01*
X48864999Y9369199D01*
X48865000Y8452331D01*
X48861323Y8414999D01*
X48865000Y8377666D01*
X48872820Y8298275D01*
X48875997Y8266014D01*
X48919453Y8122753D01*
X48990025Y7990723D01*
X49054430Y7912246D01*
X49084999Y7874998D01*
X49113997Y7851200D01*
X52981980Y3983216D01*
X52768966Y3918599D01*
X52510986Y3780706D01*
X52284866Y3595134D01*
X52260393Y3565313D01*
X52239502Y3634180D01*
X52180537Y3744494D01*
X52101185Y3841185D01*
X52004494Y3920537D01*
X51894180Y3979502D01*
X51774482Y4015812D01*
X51650000Y4028072D01*
X49950000Y4028072D01*
X49825518Y4015812D01*
X49705820Y3979502D01*
X49595506Y3920537D01*
X49498815Y3841185D01*
X49419463Y3744494D01*
X49360498Y3634180D01*
X49324188Y3514482D01*
X49311928Y3390000D01*
X49311928Y1690000D01*
X49324188Y1565518D01*
X49360498Y1445820D01*
X49419463Y1335506D01*
X49498815Y1238815D01*
X49595506Y1159463D01*
X49705820Y1100498D01*
X49825518Y1064188D01*
X49950000Y1051928D01*
X51650000Y1051928D01*
X51774482Y1064188D01*
X51894180Y1100498D01*
X52004494Y1159463D01*
X52101185Y1238815D01*
X52180537Y1335506D01*
X52239502Y1445820D01*
X52260393Y1514687D01*
X52284866Y1484866D01*
X52510986Y1299294D01*
X52768966Y1161401D01*
X53048889Y1076487D01*
X53267050Y1055000D01*
X53412950Y1055000D01*
X53631111Y1076487D01*
X53911034Y1161401D01*
X54169014Y1299294D01*
X54395134Y1484866D01*
X54580706Y1710986D01*
X54610000Y1765791D01*
X54639294Y1710986D01*
X54824866Y1484866D01*
X55050986Y1299294D01*
X55308966Y1161401D01*
X55588889Y1076487D01*
X55807050Y1055000D01*
X55952950Y1055000D01*
X56171111Y1076487D01*
X56451034Y1161401D01*
X56709014Y1299294D01*
X56935134Y1484866D01*
X57120706Y1710986D01*
X57150000Y1765791D01*
X57179294Y1710986D01*
X57364866Y1484866D01*
X57590986Y1299294D01*
X57848966Y1161401D01*
X58128889Y1076487D01*
X58347050Y1055000D01*
X58492950Y1055000D01*
X58711111Y1076487D01*
X58991034Y1161401D01*
X59249014Y1299294D01*
X59475134Y1484866D01*
X59660706Y1710986D01*
X59690000Y1765791D01*
X59719294Y1710986D01*
X59904866Y1484866D01*
X60130986Y1299294D01*
X60388966Y1161401D01*
X60668889Y1076487D01*
X60887050Y1055000D01*
X61032950Y1055000D01*
X61251111Y1076487D01*
X61531034Y1161401D01*
X61789014Y1299294D01*
X62015134Y1484866D01*
X62200706Y1710986D01*
X62230000Y1765791D01*
X62259294Y1710986D01*
X62444866Y1484866D01*
X62670986Y1299294D01*
X62928966Y1161401D01*
X63208889Y1076487D01*
X63427050Y1055000D01*
X63572950Y1055000D01*
X63791111Y1076487D01*
X64071034Y1161401D01*
X64329014Y1299294D01*
X64555134Y1484866D01*
X64740706Y1710986D01*
X64878599Y1968966D01*
X64963513Y2248889D01*
X64992185Y2540000D01*
X64963513Y2831111D01*
X64878599Y3111034D01*
X64740706Y3369014D01*
X64555134Y3595134D01*
X64329014Y3780706D01*
X64071034Y3918599D01*
X63791111Y4003513D01*
X63572950Y4025000D01*
X63427050Y4025000D01*
X63208889Y4003513D01*
X63134005Y3980797D01*
X54538804Y12575997D01*
X54515001Y12605001D01*
X54399276Y12699974D01*
X54267247Y12770546D01*
X54123986Y12814003D01*
X54012333Y12825000D01*
X54012322Y12825000D01*
X53975000Y12828676D01*
X53937678Y12825000D01*
X52077595Y12825000D01*
X52040706Y12894014D01*
X51855134Y13120134D01*
X51629014Y13305706D01*
X51574209Y13335000D01*
X51629014Y13364294D01*
X51855134Y13549866D01*
X52040706Y13775986D01*
X52178599Y14033966D01*
X52263513Y14313889D01*
X52292185Y14605000D01*
X52263513Y14896111D01*
X52178599Y15176034D01*
X52040706Y15434014D01*
X51855134Y15660134D01*
X51629014Y15845706D01*
X51574209Y15875000D01*
X51629014Y15904294D01*
X51855134Y16089866D01*
X52040706Y16315986D01*
X52178599Y16573966D01*
X52263513Y16853889D01*
X52292185Y17145000D01*
X52263513Y17436111D01*
X52178599Y17716034D01*
X52040706Y17974014D01*
X51855134Y18200134D01*
X51629014Y18385706D01*
X51371034Y18523599D01*
X51091111Y18608513D01*
X50872950Y18630000D01*
X50727050Y18630000D01*
X50508889Y18608513D01*
X50228966Y18523599D01*
X49970986Y18385706D01*
X49744866Y18200134D01*
X49559294Y17974014D01*
X49421401Y17716034D01*
X49336487Y17436111D01*
X49307815Y17145000D01*
X49336487Y16853889D01*
X49421401Y16573966D01*
X49559294Y16315986D01*
X49744866Y16089866D01*
X49970986Y15904294D01*
X50025791Y15875000D01*
X49970986Y15845706D01*
X49744866Y15660134D01*
X49559294Y15434014D01*
X49421401Y15176034D01*
X49336487Y14896111D01*
X49310235Y14629567D01*
X47970072Y15969729D01*
X47970072Y16217000D01*
X47957812Y16341482D01*
X47921502Y16461180D01*
X47862537Y16571494D01*
X47783185Y16668185D01*
X47686494Y16747537D01*
X47576180Y16806502D01*
X47456482Y16842812D01*
X47332000Y16855072D01*
X45632000Y16855072D01*
X45507518Y16842812D01*
X45387820Y16806502D01*
X45277506Y16747537D01*
X45180815Y16668185D01*
X45101463Y16571494D01*
X45042498Y16461180D01*
X45006188Y16341482D01*
X44993928Y16217000D01*
X44993928Y15588730D01*
X37785199Y8380000D01*
X22652571Y8380000D01*
X22602106Y8474414D01*
X22416534Y8700534D01*
X22190414Y8886106D01*
X22135609Y8915400D01*
X22190414Y8944694D01*
X22416534Y9130266D01*
X22602106Y9356386D01*
X22739999Y9614366D01*
X22824913Y9894289D01*
X22853585Y10185400D01*
X22824913Y10476511D01*
X22766219Y10670000D01*
X35548078Y10670000D01*
X35585400Y10666324D01*
X35622722Y10670000D01*
X35622733Y10670000D01*
X35734386Y10680997D01*
X35877647Y10724454D01*
X36009676Y10795026D01*
X36125401Y10889999D01*
X36149204Y10919003D01*
X46060202Y20830000D01*
X59652678Y20830000D01*
X59690000Y20826324D01*
X59727322Y20830000D01*
X59727333Y20830000D01*
X59838986Y20840997D01*
X59982247Y20884454D01*
X60114276Y20955026D01*
X60230001Y21049999D01*
X60253804Y21079003D01*
X64011004Y24836202D01*
X64040001Y24859999D01*
X64134974Y24975724D01*
X64205546Y25107753D01*
X64249003Y25251014D01*
X64260000Y25362667D01*
X64260000Y25362675D01*
X64263676Y25400000D01*
X64260000Y25437325D01*
X64260000Y45077405D01*
X64329014Y45114294D01*
X64555134Y45299866D01*
X64740706Y45525986D01*
X64878599Y45783966D01*
X64963513Y46063889D01*
X64992185Y46355000D01*
X64963513Y46646111D01*
X64878599Y46926034D01*
X64740706Y47184014D01*
X64555134Y47410134D01*
X64329014Y47595706D01*
X64260000Y47632595D01*
X64260000Y48222678D01*
X64263676Y48260001D01*
X64260000Y48297324D01*
X64260000Y48297333D01*
X64249003Y48408986D01*
X64205546Y48552247D01*
X64134974Y48684276D01*
X64121811Y48700315D01*
X64063799Y48771004D01*
X64063795Y48771008D01*
X64040001Y48800001D01*
X64011009Y48823794D01*
X63519803Y49315000D01*
X63572950Y49315000D01*
X63791111Y49336487D01*
X64071034Y49421401D01*
X64329014Y49559294D01*
X64555134Y49744866D01*
X64740706Y49970986D01*
X64878599Y50228966D01*
X64963513Y50508889D01*
X64992185Y50800000D01*
X64963513Y51091111D01*
X64878599Y51371034D01*
X64740706Y51629014D01*
X64555134Y51855134D01*
X64329014Y52040706D01*
X64071034Y52178599D01*
X64026777Y52192024D01*
X64657377Y52194532D01*
X65149468Y51702440D01*
X65149468Y51702440D01*
G37*
X65149468Y51702440D02*
X65024310Y888051D01*
X41343544Y710000D01*
X-2292709Y710000D01*
X-2321862Y2687600D01*
X-1648910Y2687600D01*
X-1618238Y2586472D01*
X-1510473Y2353371D01*
X-1359303Y2145773D01*
X-1170537Y1971656D01*
X-951430Y1837711D01*
X-710401Y1749085D01*
X-508000Y1871915D01*
X-508000Y2890000D01*
X-254000Y2890000D01*
X-254000Y1871915D01*
X-51599Y1749085D01*
X189430Y1837711D01*
X408537Y1971656D01*
X597303Y2145773D01*
X748473Y2353371D01*
X856238Y2586472D01*
X886910Y2687600D01*
X763224Y2890000D01*
X-254000Y2890000D01*
X-508000Y2890000D01*
X-1525224Y2890000D01*
X-1648910Y2687600D01*
X-2321862Y2687600D01*
X-2385686Y7017000D01*
X-1697338Y7017000D01*
X-1672045Y6760195D01*
X-1597138Y6513259D01*
X-1475495Y6285682D01*
X-1311792Y6086208D01*
X-1227461Y6017000D01*
X-1311792Y5947792D01*
X-1475495Y5748318D01*
X-1597138Y5520741D01*
X-1672045Y5273805D01*
X-1697338Y5017000D01*
X-1672045Y4760195D01*
X-1597138Y4513259D01*
X-1475495Y4285682D01*
X-1311792Y4086208D01*
X-1223352Y4013628D01*
X-1359303Y3888227D01*
X-1510473Y3680629D01*
X-1618238Y3447528D01*
X-1648910Y3346400D01*
X-1525224Y3144000D01*
X-508000Y3144000D01*
X-508000Y3164000D01*
X-254000Y3164000D01*
X-254000Y3144000D01*
X763224Y3144000D01*
X886910Y3346400D01*
X856238Y3447528D01*
X767257Y3640000D01*
X3341928Y3640000D01*
X3341928Y1440000D01*
X3354188Y1315518D01*
X3390498Y1195820D01*
X3449463Y1085506D01*
X3528815Y988815D01*
X3625506Y909463D01*
X3735820Y850498D01*
X3855518Y814188D01*
X3980000Y801928D01*
X6180000Y801928D01*
X6304482Y814188D01*
X6424180Y850498D01*
X6534494Y909463D01*
X6631185Y988815D01*
X6710537Y1085506D01*
X6769502Y1195820D01*
X6805812Y1315518D01*
X6818072Y1440000D01*
X6818072Y2540000D01*
X13496606Y2540000D01*
X13530105Y2199881D01*
X13629314Y1872832D01*
X13790421Y1571422D01*
X14007234Y1307234D01*
X14271422Y1090421D01*
X14572832Y929314D01*
X14899881Y830105D01*
X15154775Y805000D01*
X15325225Y805000D01*
X15580119Y830105D01*
X15907168Y929314D01*
X16208578Y1090421D01*
X16472766Y1307234D01*
X16689579Y1571422D01*
X16850686Y1872832D01*
X16949895Y2199881D01*
X16983394Y2540000D01*
X16949895Y2880119D01*
X16850686Y3207168D01*
X16689579Y3508578D01*
X16472766Y3772766D01*
X16208578Y3989579D01*
X15907168Y4150686D01*
X15580119Y4249895D01*
X15325225Y4275000D01*
X15154775Y4275000D01*
X14899881Y4249895D01*
X14572832Y4150686D01*
X14271422Y3989579D01*
X14007234Y3772766D01*
X13790421Y3508578D01*
X13629314Y3207168D01*
X13530105Y2880119D01*
X13496606Y2540000D01*
X6818072Y2540000D01*
X6818072Y3640000D01*
X6805812Y3764482D01*
X6769502Y3884180D01*
X6710537Y3994494D01*
X6631185Y4091185D01*
X6534494Y4170537D01*
X6424180Y4229502D01*
X6304482Y4265812D01*
X6180000Y4278072D01*
X3980000Y4278072D01*
X3855518Y4265812D01*
X3735820Y4229502D01*
X3625506Y4170537D01*
X3528815Y4091185D01*
X3449463Y3994494D01*
X3390498Y3884180D01*
X3354188Y3764482D01*
X3341928Y3640000D01*
X767257Y3640000D01*
X748473Y3680629D01*
X597303Y3888227D01*
X461352Y4013628D01*
X549792Y4086208D01*
X713495Y4285682D01*
X835138Y4513259D01*
X910045Y4760195D01*
X935338Y5017000D01*
X910045Y5273805D01*
X835138Y5520741D01*
X713495Y5748318D01*
X549792Y5947792D01*
X465461Y6017000D01*
X549792Y6086208D01*
X713495Y6285682D01*
X835138Y6513259D01*
X910045Y6760195D01*
X935338Y7017000D01*
X910045Y7273805D01*
X835138Y7520741D01*
X713495Y7748318D01*
X656369Y7817926D01*
X745185Y7890815D01*
X824537Y7987506D01*
X883502Y8097820D01*
X919812Y8217518D01*
X932072Y8342000D01*
X932072Y9692000D01*
X919812Y9816482D01*
X883502Y9936180D01*
X824537Y10046494D01*
X745185Y10143185D01*
X648494Y10222537D01*
X538180Y10281502D01*
X418482Y10317812D01*
X294000Y10330072D01*
X-1056000Y10330072D01*
X-1180482Y10317812D01*
X-1300180Y10281502D01*
X-1410494Y10222537D01*
X-1507185Y10143185D01*
X-1586537Y10046494D01*
X-1645502Y9936180D01*
X-1681812Y9816482D01*
X-1694072Y9692000D01*
X-1694072Y8342000D01*
X-1681812Y8217518D01*
X-1645502Y8097820D01*
X-1586537Y7987506D01*
X-1507185Y7890815D01*
X-1418369Y7817926D01*
X-1475495Y7748318D01*
X-1597138Y7520741D01*
X-1672045Y7273805D01*
X-1697338Y7017000D01*
X-2385686Y7017000D01*
X-2501647Y14883110D01*
X12528524Y14883110D01*
X12573175Y14735901D01*
X12698359Y14473080D01*
X12872412Y14239731D01*
X13088645Y14044822D01*
X13338748Y13895843D01*
X13613109Y13798519D01*
X13843000Y13919186D01*
X13843000Y15113000D01*
X14097000Y15113000D01*
X14097000Y13919186D01*
X14326891Y13798519D01*
X14601252Y13895843D01*
X14851355Y14044822D01*
X15067588Y14239731D01*
X15241641Y14473080D01*
X15366825Y14735901D01*
X15411476Y14883110D01*
X15290155Y15113000D01*
X14097000Y15113000D01*
X13843000Y15113000D01*
X12649845Y15113000D01*
X12528524Y14883110D01*
X-2501647Y14883110D01*
X-2619243Y22860000D01*
X12477815Y22860000D01*
X12506487Y22568889D01*
X12591401Y22288966D01*
X12729294Y22030986D01*
X12914866Y21804866D01*
X13140986Y21619294D01*
X13195791Y21590000D01*
X13140986Y21560706D01*
X12914866Y21375134D01*
X12729294Y21149014D01*
X12591401Y20891034D01*
X12506487Y20611111D01*
X12477815Y20320000D01*
X12506487Y20028889D01*
X12591401Y19748966D01*
X12729294Y19490986D01*
X12914866Y19264866D01*
X13140986Y19079294D01*
X13195791Y19050000D01*
X13140986Y19020706D01*
X12914866Y18835134D01*
X12729294Y18609014D01*
X12591401Y18351034D01*
X12506487Y18071111D01*
X12477815Y17780000D01*
X12506487Y17488889D01*
X12591401Y17208966D01*
X12729294Y16950986D01*
X12914866Y16724866D01*
X13140986Y16539294D01*
X13205523Y16504799D01*
X13088645Y16435178D01*
X12872412Y16240269D01*
X12698359Y16006920D01*
X12573175Y15744099D01*
X12528524Y15596890D01*
X12649845Y15367000D01*
X13843000Y15367000D01*
X13843000Y15387000D01*
X14097000Y15387000D01*
X14097000Y15367000D01*
X15290155Y15367000D01*
X15411476Y15596890D01*
X15366825Y15744099D01*
X15241641Y16006920D01*
X15067588Y16240269D01*
X14851355Y16435178D01*
X14734477Y16504799D01*
X14799014Y16539294D01*
X15025134Y16724866D01*
X15210706Y16950986D01*
X15348599Y17208966D01*
X15433513Y17488889D01*
X15462185Y17780000D01*
X15433513Y18071111D01*
X15348599Y18351034D01*
X15210706Y18609014D01*
X15025134Y18835134D01*
X14799014Y19020706D01*
X14744209Y19050000D01*
X14799014Y19079294D01*
X15025134Y19264866D01*
X15210706Y19490986D01*
X15348599Y19748966D01*
X15433513Y20028889D01*
X15462185Y20320000D01*
X15433513Y20611111D01*
X15348599Y20891034D01*
X15210706Y21149014D01*
X15025134Y21375134D01*
X14799014Y21560706D01*
X14744209Y21590000D01*
X14799014Y21619294D01*
X15025134Y21804866D01*
X15210706Y22030986D01*
X15348599Y22288966D01*
X15433513Y22568889D01*
X15462185Y22860000D01*
X15433513Y23151111D01*
X15348599Y23431034D01*
X15210706Y23689014D01*
X15025134Y23915134D01*
X14995313Y23939607D01*
X15064180Y23960498D01*
X15174494Y24019463D01*
X15271185Y24098815D01*
X15350537Y24195506D01*
X15409502Y24305820D01*
X15445812Y24425518D01*
X15458072Y24550000D01*
X15458072Y26250000D01*
X15445812Y26374482D01*
X15409502Y26494180D01*
X15350537Y26604494D01*
X15271185Y26701185D01*
X15174494Y26780537D01*
X15064180Y26839502D01*
X14944482Y26875812D01*
X14820000Y26888072D01*
X13120000Y26888072D01*
X12995518Y26875812D01*
X12875820Y26839502D01*
X12765506Y26780537D01*
X12668815Y26701185D01*
X12589463Y26604494D01*
X12530498Y26494180D01*
X12494188Y26374482D01*
X12481928Y26250000D01*
X12481928Y24550000D01*
X12494188Y24425518D01*
X12530498Y24305820D01*
X12589463Y24195506D01*
X12668815Y24098815D01*
X12765506Y24019463D01*
X12875820Y23960498D01*
X12944687Y23939607D01*
X12914866Y23915134D01*
X12729294Y23689014D01*
X12591401Y23431034D01*
X12506487Y23151111D01*
X12477815Y22860000D01*
X-2619243Y22860000D01*
X-3046071Y51813103D01*
X2537178Y51689031D01*
X2562003Y51690921D01*
X2585982Y51697617D01*
X2608194Y51708862D01*
X2627785Y51724224D01*
X2644003Y51743114D01*
X2656224Y51764804D01*
X2663979Y51788462D01*
X2666969Y51813178D01*
X2665079Y51838003D01*
X2658383Y51861982D01*
X2647138Y51884194D01*
X2631776Y51903785D01*
X2612886Y51920003D01*
X2591196Y51932224D01*
X2567550Y51939976D01*
X2533610Y51947518D01*
X12580361Y51987465D01*
X12530498Y51894180D01*
X12494188Y51774482D01*
X12481928Y51650000D01*
X12481928Y49950000D01*
X12494188Y49825518D01*
X12530498Y49705820D01*
X12589463Y49595506D01*
X12668815Y49498815D01*
X12765506Y49419463D01*
X12875820Y49360498D01*
X12944687Y49339607D01*
X12914866Y49315134D01*
X12729294Y49089014D01*
X12591401Y48831034D01*
X12506487Y48551111D01*
X12477815Y48260000D01*
X12506487Y47968889D01*
X12591401Y47688966D01*
X12729294Y47430986D01*
X12914866Y47204866D01*
X13140986Y47019294D01*
X13195791Y46990000D01*
X13140986Y46960706D01*
X12914866Y46775134D01*
X12729294Y46549014D01*
X12591401Y46291034D01*
X12506487Y46011111D01*
X12477815Y45720000D01*
X12506487Y45428889D01*
X12591401Y45148966D01*
X12729294Y44890986D01*
X12914866Y44664866D01*
X13140986Y44479294D01*
X13195791Y44450000D01*
X13140986Y44420706D01*
X12914866Y44235134D01*
X12729294Y44009014D01*
X12591401Y43751034D01*
X12506487Y43471111D01*
X12477815Y43180000D01*
X12506487Y42888889D01*
X12591401Y42608966D01*
X12729294Y42350986D01*
X12914866Y42124866D01*
X13140986Y41939294D01*
X13195791Y41910000D01*
X13140986Y41880706D01*
X12914866Y41695134D01*
X12729294Y41469014D01*
X12591401Y41211034D01*
X12506487Y40931111D01*
X12477815Y40640000D01*
X12506487Y40348889D01*
X12591401Y40068966D01*
X12729294Y39810986D01*
X12914866Y39584866D01*
X13140986Y39399294D01*
X13195791Y39370000D01*
X13140986Y39340706D01*
X12914866Y39155134D01*
X12729294Y38929014D01*
X12591401Y38671034D01*
X12506487Y38391111D01*
X12477815Y38100000D01*
X12506487Y37808889D01*
X12591401Y37528966D01*
X12729294Y37270986D01*
X12914866Y37044866D01*
X13140986Y36859294D01*
X13195791Y36830000D01*
X13140986Y36800706D01*
X12914866Y36615134D01*
X12729294Y36389014D01*
X12591401Y36131034D01*
X12506487Y35851111D01*
X12477815Y35560000D01*
X12506487Y35268889D01*
X12591401Y34988966D01*
X12729294Y34730986D01*
X12914866Y34504866D01*
X13140986Y34319294D01*
X13398966Y34181401D01*
X13678889Y34096487D01*
X13897050Y34075000D01*
X14042950Y34075000D01*
X14261111Y34096487D01*
X14541034Y34181401D01*
X14799014Y34319294D01*
X15025134Y34504866D01*
X15210706Y34730986D01*
X15348599Y34988966D01*
X15433513Y35268889D01*
X15462185Y35560000D01*
X15433513Y35851111D01*
X15348599Y36131034D01*
X15210706Y36389014D01*
X15025134Y36615134D01*
X14799014Y36800706D01*
X14744209Y36830000D01*
X14799014Y36859294D01*
X15025134Y37044866D01*
X15210706Y37270986D01*
X15348599Y37528966D01*
X15433513Y37808889D01*
X15462185Y38100000D01*
X15433513Y38391111D01*
X15348599Y38671034D01*
X15210706Y38929014D01*
X15025134Y39155134D01*
X14799014Y39340706D01*
X14744209Y39370000D01*
X14799014Y39399294D01*
X15025134Y39584866D01*
X15210706Y39810986D01*
X15348599Y40068966D01*
X15433513Y40348889D01*
X15462185Y40640000D01*
X15433513Y40931111D01*
X15348599Y41211034D01*
X15210706Y41469014D01*
X15025134Y41695134D01*
X14799014Y41880706D01*
X14744209Y41910000D01*
X14799014Y41939294D01*
X15025134Y42124866D01*
X15210706Y42350986D01*
X15348599Y42608966D01*
X15433513Y42888889D01*
X15462185Y43180000D01*
X15433513Y43471111D01*
X15348599Y43751034D01*
X15210706Y44009014D01*
X15025134Y44235134D01*
X14799014Y44420706D01*
X14744209Y44450000D01*
X14799014Y44479294D01*
X15025134Y44664866D01*
X15210706Y44890986D01*
X15348599Y45148966D01*
X15433513Y45428889D01*
X15462185Y45720000D01*
X15433513Y46011111D01*
X15348599Y46291034D01*
X15210706Y46549014D01*
X15025134Y46775134D01*
X14799014Y46960706D01*
X14744209Y46990000D01*
X14799014Y47019294D01*
X15025134Y47204866D01*
X15210706Y47430986D01*
X15348599Y47688966D01*
X15433513Y47968889D01*
X15462185Y48260000D01*
X15433513Y48551111D01*
X15348599Y48831034D01*
X15210706Y49089014D01*
X15025134Y49315134D01*
X14995313Y49339607D01*
X15064180Y49360498D01*
X15174494Y49419463D01*
X15271185Y49498815D01*
X15350537Y49595506D01*
X15409502Y49705820D01*
X15445812Y49825518D01*
X15458072Y49950000D01*
X15458072Y51650000D01*
X15445812Y51774482D01*
X15409502Y51894180D01*
X15353745Y51998493D01*
X17922444Y52008706D01*
X17766266Y51880534D01*
X17580694Y51654414D01*
X17442801Y51396434D01*
X17357887Y51116511D01*
X17329215Y50825400D01*
X17357887Y50534289D01*
X17442801Y50254366D01*
X17580694Y49996386D01*
X17766266Y49770266D01*
X17992386Y49584694D01*
X18047191Y49555400D01*
X17992386Y49526106D01*
X17766266Y49340534D01*
X17580694Y49114414D01*
X17442801Y48856434D01*
X17357887Y48576511D01*
X17329215Y48285400D01*
X17357887Y47994289D01*
X17442801Y47714366D01*
X17580694Y47456386D01*
X17766266Y47230266D01*
X17992386Y47044694D01*
X18047191Y47015400D01*
X17992386Y46986106D01*
X17766266Y46800534D01*
X17580694Y46574414D01*
X17442801Y46316434D01*
X17357887Y46036511D01*
X17329215Y45745400D01*
X17357887Y45454289D01*
X17442801Y45174366D01*
X17580694Y44916386D01*
X17766266Y44690266D01*
X17992386Y44504694D01*
X18056923Y44470199D01*
X17940045Y44400578D01*
X17723812Y44205669D01*
X17549759Y43972320D01*
X17424575Y43709499D01*
X17379924Y43562290D01*
X17501245Y43332400D01*
X18694400Y43332400D01*
X18694400Y43352400D01*
X18948400Y43352400D01*
X18948400Y43332400D01*
X18968400Y43332400D01*
X18968400Y43078400D01*
X18948400Y43078400D01*
X18948400Y43058400D01*
X18694400Y43058400D01*
X18694400Y43078400D01*
X17501245Y43078400D01*
X17379924Y42848510D01*
X17424575Y42701301D01*
X17549759Y42438480D01*
X17723812Y42205131D01*
X17940045Y42010222D01*
X18056923Y41940601D01*
X17992386Y41906106D01*
X17766266Y41720534D01*
X17580694Y41494414D01*
X17442801Y41236434D01*
X17357887Y40956511D01*
X17329215Y40665400D01*
X17357887Y40374289D01*
X17442801Y40094366D01*
X17580694Y39836386D01*
X17766266Y39610266D01*
X17992386Y39424694D01*
X18056923Y39390199D01*
X17940045Y39320578D01*
X17723812Y39125669D01*
X17549759Y38892320D01*
X17424575Y38629499D01*
X17379924Y38482290D01*
X17501245Y38252400D01*
X18694400Y38252400D01*
X18694400Y38272400D01*
X18948400Y38272400D01*
X18948400Y38252400D01*
X18968400Y38252400D01*
X18968400Y37998400D01*
X18948400Y37998400D01*
X18948400Y37978400D01*
X18694400Y37978400D01*
X18694400Y37998400D01*
X17501245Y37998400D01*
X17379924Y37768510D01*
X17424575Y37621301D01*
X17549759Y37358480D01*
X17723812Y37125131D01*
X17940045Y36930222D01*
X18056923Y36860601D01*
X17992386Y36826106D01*
X17766266Y36640534D01*
X17580694Y36414414D01*
X17442801Y36156434D01*
X17357887Y35876511D01*
X17329215Y35585400D01*
X17357887Y35294289D01*
X17442801Y35014366D01*
X17580694Y34756386D01*
X17766266Y34530266D01*
X17992386Y34344694D01*
X18047191Y34315400D01*
X17992386Y34286106D01*
X17766266Y34100534D01*
X17580694Y33874414D01*
X17442801Y33616434D01*
X17357887Y33336511D01*
X17329215Y33045400D01*
X17357887Y32754289D01*
X17442801Y32474366D01*
X17580694Y32216386D01*
X17766266Y31990266D01*
X17992386Y31804694D01*
X18047191Y31775400D01*
X17992386Y31746106D01*
X17766266Y31560534D01*
X17580694Y31334414D01*
X17442801Y31076434D01*
X17357887Y30796511D01*
X17329215Y30505400D01*
X17357887Y30214289D01*
X17442801Y29934366D01*
X17580694Y29676386D01*
X17766266Y29450266D01*
X17992386Y29264694D01*
X18047191Y29235400D01*
X17992386Y29206106D01*
X17766266Y29020534D01*
X17580694Y28794414D01*
X17442801Y28536434D01*
X17357887Y28256511D01*
X17329215Y27965400D01*
X17357887Y27674289D01*
X17442801Y27394366D01*
X17580694Y27136386D01*
X17766266Y26910266D01*
X17992386Y26724694D01*
X18056923Y26690199D01*
X17940045Y26620578D01*
X17723812Y26425669D01*
X17549759Y26192320D01*
X17424575Y25929499D01*
X17379924Y25782290D01*
X17501245Y25552400D01*
X18694400Y25552400D01*
X18694400Y25572400D01*
X18948400Y25572400D01*
X18948400Y25552400D01*
X18968400Y25552400D01*
X18968400Y25298400D01*
X18948400Y25298400D01*
X18948400Y25278400D01*
X18694400Y25278400D01*
X18694400Y25298400D01*
X17501245Y25298400D01*
X17379924Y25068510D01*
X17424575Y24921301D01*
X17549759Y24658480D01*
X17723812Y24425131D01*
X17940045Y24230222D01*
X18056923Y24160601D01*
X17992386Y24126106D01*
X17766266Y23940534D01*
X17580694Y23714414D01*
X17442801Y23456434D01*
X17357887Y23176511D01*
X17329215Y22885400D01*
X17357887Y22594289D01*
X17442801Y22314366D01*
X17580694Y22056386D01*
X17766266Y21830266D01*
X17992386Y21644694D01*
X18047191Y21615400D01*
X17992386Y21586106D01*
X17766266Y21400534D01*
X17580694Y21174414D01*
X17442801Y20916434D01*
X17357887Y20636511D01*
X17329215Y20345400D01*
X17357887Y20054289D01*
X17442801Y19774366D01*
X17580694Y19516386D01*
X17766266Y19290266D01*
X17992386Y19104694D01*
X18056923Y19070199D01*
X17940045Y19000578D01*
X17723812Y18805669D01*
X17549759Y18572320D01*
X17424575Y18309499D01*
X17379924Y18162290D01*
X17501245Y17932400D01*
X18694400Y17932400D01*
X18694400Y17952400D01*
X18948400Y17952400D01*
X18948400Y17932400D01*
X18968400Y17932400D01*
X18968400Y17678400D01*
X18948400Y17678400D01*
X18948400Y17658400D01*
X18694400Y17658400D01*
X18694400Y17678400D01*
X17501245Y17678400D01*
X17379924Y17448510D01*
X17424575Y17301301D01*
X17549759Y17038480D01*
X17723812Y16805131D01*
X17940045Y16610222D01*
X18056923Y16540601D01*
X17992386Y16506106D01*
X17766266Y16320534D01*
X17580694Y16094414D01*
X17442801Y15836434D01*
X17357887Y15556511D01*
X17329215Y15265400D01*
X17357887Y14974289D01*
X17442801Y14694366D01*
X17580694Y14436386D01*
X17766266Y14210266D01*
X17992386Y14024694D01*
X18047191Y13995400D01*
X17992386Y13966106D01*
X17766266Y13780534D01*
X17580694Y13554414D01*
X17442801Y13296434D01*
X17357887Y13016511D01*
X17329215Y12725400D01*
X17357887Y12434289D01*
X17442801Y12154366D01*
X17580694Y11896386D01*
X17766266Y11670266D01*
X17992386Y11484694D01*
X18047191Y11455400D01*
X17992386Y11426106D01*
X17766266Y11240534D01*
X17580694Y11014414D01*
X17442801Y10756434D01*
X17357887Y10476511D01*
X17329215Y10185400D01*
X17357887Y9894289D01*
X17442801Y9614366D01*
X17580694Y9356386D01*
X17766266Y9130266D01*
X17992386Y8944694D01*
X18056923Y8910199D01*
X17940045Y8840578D01*
X17723812Y8645669D01*
X17549759Y8412320D01*
X17424575Y8149499D01*
X17379924Y8002290D01*
X17501245Y7772400D01*
X18694400Y7772400D01*
X18694400Y7792400D01*
X18948400Y7792400D01*
X18948400Y7772400D01*
X18968400Y7772400D01*
X18968400Y7518400D01*
X18948400Y7518400D01*
X18948400Y7498400D01*
X18694400Y7498400D01*
X18694400Y7518400D01*
X17501245Y7518400D01*
X17379924Y7288510D01*
X17424575Y7141301D01*
X17549759Y6878480D01*
X17723812Y6645131D01*
X17940045Y6450222D01*
X18056923Y6380601D01*
X17992386Y6346106D01*
X17766266Y6160534D01*
X17580694Y5934414D01*
X17442801Y5676434D01*
X17357887Y5396511D01*
X17329215Y5105400D01*
X17357887Y4814289D01*
X17442801Y4534366D01*
X17580694Y4276386D01*
X17766266Y4050266D01*
X17992386Y3864694D01*
X18047191Y3835400D01*
X17992386Y3806106D01*
X17766266Y3620534D01*
X17580694Y3394414D01*
X17442801Y3136434D01*
X17357887Y2856511D01*
X17329215Y2565400D01*
X17357887Y2274289D01*
X17442801Y1994366D01*
X17580694Y1736386D01*
X17766266Y1510266D01*
X17992386Y1324694D01*
X18250366Y1186801D01*
X18530289Y1101887D01*
X18748450Y1080400D01*
X18894350Y1080400D01*
X19112511Y1101887D01*
X19392434Y1186801D01*
X19650414Y1324694D01*
X19876534Y1510266D01*
X19901007Y1540087D01*
X19921898Y1471220D01*
X19980863Y1360906D01*
X20060215Y1264215D01*
X20156906Y1184863D01*
X20267220Y1125898D01*
X20386918Y1089588D01*
X20511400Y1077328D01*
X22211400Y1077328D01*
X22335882Y1089588D01*
X22455580Y1125898D01*
X22565894Y1184863D01*
X22662585Y1264215D01*
X22741937Y1360906D01*
X22800902Y1471220D01*
X22837212Y1590918D01*
X22849472Y1715400D01*
X22849472Y3415400D01*
X22837212Y3539882D01*
X22800902Y3659580D01*
X22741937Y3769894D01*
X22662585Y3866585D01*
X22565894Y3945937D01*
X22455580Y4004902D01*
X22386713Y4025793D01*
X22416534Y4050266D01*
X22602106Y4276386D01*
X22625418Y4320000D01*
X36265198Y4320000D01*
X35925995Y3980797D01*
X35851111Y4003513D01*
X35632950Y4025000D01*
X35487050Y4025000D01*
X35268889Y4003513D01*
X34988966Y3918599D01*
X34730986Y3780706D01*
X34504866Y3595134D01*
X34319294Y3369014D01*
X34290000Y3314209D01*
X34260706Y3369014D01*
X34075134Y3595134D01*
X33849014Y3780706D01*
X33591034Y3918599D01*
X33311111Y4003513D01*
X33092950Y4025000D01*
X32947050Y4025000D01*
X32728889Y4003513D01*
X32448966Y3918599D01*
X32190986Y3780706D01*
X31964866Y3595134D01*
X31779294Y3369014D01*
X31750000Y3314209D01*
X31720706Y3369014D01*
X31535134Y3595134D01*
X31309014Y3780706D01*
X31051034Y3918599D01*
X30771111Y4003513D01*
X30552950Y4025000D01*
X30407050Y4025000D01*
X30188889Y4003513D01*
X29908966Y3918599D01*
X29650986Y3780706D01*
X29424866Y3595134D01*
X29400393Y3565313D01*
X29379502Y3634180D01*
X29320537Y3744494D01*
X29241185Y3841185D01*
X29144494Y3920537D01*
X29034180Y3979502D01*
X28914482Y4015812D01*
X28790000Y4028072D01*
X27090000Y4028072D01*
X26965518Y4015812D01*
X26845820Y3979502D01*
X26735506Y3920537D01*
X26638815Y3841185D01*
X26559463Y3744494D01*
X26500498Y3634180D01*
X26464188Y3514482D01*
X26451928Y3390000D01*
X26451928Y1690000D01*
X26464188Y1565518D01*
X26500498Y1445820D01*
X26559463Y1335506D01*
X26638815Y1238815D01*
X26735506Y1159463D01*
X26845820Y1100498D01*
X26965518Y1064188D01*
X27090000Y1051928D01*
X28790000Y1051928D01*
X28914482Y1064188D01*
X29034180Y1100498D01*
X29144494Y1159463D01*
X29241185Y1238815D01*
X29320537Y1335506D01*
X29379502Y1445820D01*
X29400393Y1514687D01*
X29424866Y1484866D01*
X29650986Y1299294D01*
X29908966Y1161401D01*
X30188889Y1076487D01*
X30407050Y1055000D01*
X30552950Y1055000D01*
X30771111Y1076487D01*
X31051034Y1161401D01*
X31309014Y1299294D01*
X31535134Y1484866D01*
X31720706Y1710986D01*
X31750000Y1765791D01*
X31779294Y1710986D01*
X31964866Y1484866D01*
X32190986Y1299294D01*
X32448966Y1161401D01*
X32728889Y1076487D01*
X32947050Y1055000D01*
X33092950Y1055000D01*
X33311111Y1076487D01*
X33591034Y1161401D01*
X33849014Y1299294D01*
X34075134Y1484866D01*
X34260706Y1710986D01*
X34290000Y1765791D01*
X34319294Y1710986D01*
X34504866Y1484866D01*
X34730986Y1299294D01*
X34988966Y1161401D01*
X35268889Y1076487D01*
X35487050Y1055000D01*
X35632950Y1055000D01*
X35851111Y1076487D01*
X36131034Y1161401D01*
X36389014Y1299294D01*
X36615134Y1484866D01*
X36800706Y1710986D01*
X36830000Y1765791D01*
X36859294Y1710986D01*
X37044866Y1484866D01*
X37270986Y1299294D01*
X37528966Y1161401D01*
X37808889Y1076487D01*
X38027050Y1055000D01*
X38172950Y1055000D01*
X38391111Y1076487D01*
X38671034Y1161401D01*
X38929014Y1299294D01*
X39155134Y1484866D01*
X39340706Y1710986D01*
X39375201Y1775523D01*
X39444822Y1658645D01*
X39639731Y1442412D01*
X39873080Y1268359D01*
X40135901Y1143175D01*
X40283110Y1098524D01*
X40513000Y1219845D01*
X40513000Y2413000D01*
X40767000Y2413000D01*
X40767000Y1219845D01*
X40996890Y1098524D01*
X41144099Y1143175D01*
X41406920Y1268359D01*
X41640269Y1442412D01*
X41835178Y1658645D01*
X41910000Y1784255D01*
X41984822Y1658645D01*
X42179731Y1442412D01*
X42413080Y1268359D01*
X42675901Y1143175D01*
X42823110Y1098524D01*
X43053000Y1219845D01*
X43053000Y2413000D01*
X40767000Y2413000D01*
X40513000Y2413000D01*
X40493000Y2413000D01*
X40493000Y2667000D01*
X40513000Y2667000D01*
X40513000Y2687000D01*
X40767000Y2687000D01*
X40767000Y2667000D01*
X43053000Y2667000D01*
X43053000Y3860155D01*
X43307000Y3860155D01*
X43307000Y2667000D01*
X43327000Y2667000D01*
X43327000Y2413000D01*
X43307000Y2413000D01*
X43307000Y1219845D01*
X43536890Y1098524D01*
X43684099Y1143175D01*
X43946920Y1268359D01*
X44180269Y1442412D01*
X44375178Y1658645D01*
X44444799Y1775523D01*
X44479294Y1710986D01*
X44664866Y1484866D01*
X44890986Y1299294D01*
X45148966Y1161401D01*
X45428889Y1076487D01*
X45647050Y1055000D01*
X45792950Y1055000D01*
X46011111Y1076487D01*
X46291034Y1161401D01*
X46549014Y1299294D01*
X46775134Y1484866D01*
X46960706Y1710986D01*
X47098599Y1968966D01*
X47183513Y2248889D01*
X47212185Y2540000D01*
X47183513Y2831111D01*
X47098599Y3111034D01*
X46960706Y3369014D01*
X46775134Y3595134D01*
X46549014Y3780706D01*
X46291034Y3918599D01*
X46011111Y4003513D01*
X45792950Y4025000D01*
X45647050Y4025000D01*
X45428889Y4003513D01*
X45148966Y3918599D01*
X44890986Y3780706D01*
X44664866Y3595134D01*
X44479294Y3369014D01*
X44444799Y3304477D01*
X44375178Y3421355D01*
X44180269Y3637588D01*
X43946920Y3811641D01*
X43684099Y3936825D01*
X43536890Y3981476D01*
X43307000Y3860155D01*
X43053000Y3860155D01*
X42823110Y3981476D01*
X42675901Y3936825D01*
X42413080Y3811641D01*
X42179731Y3637588D01*
X41984822Y3421355D01*
X41910000Y3295745D01*
X41835178Y3421355D01*
X41640269Y3637588D01*
X41565697Y3693211D01*
X41593986Y3695997D01*
X41737247Y3739454D01*
X41869276Y3810026D01*
X41985001Y3904999D01*
X42008804Y3934003D01*
X45154733Y7079931D01*
X45241294Y6917986D01*
X45426866Y6691866D01*
X45652986Y6506294D01*
X45910966Y6368401D01*
X46190889Y6283487D01*
X46409050Y6262000D01*
X46554950Y6262000D01*
X46773111Y6283487D01*
X47053034Y6368401D01*
X47311014Y6506294D01*
X47537134Y6691866D01*
X47722706Y6917986D01*
X47860599Y7175966D01*
X47945513Y7455889D01*
X47974185Y7747000D01*
X47945513Y8038111D01*
X47860599Y8318034D01*
X47722706Y8576014D01*
X47537134Y8802134D01*
X47311014Y8987706D01*
X47246477Y9022201D01*
X47363355Y9091822D01*
X47579588Y9286731D01*
X47753641Y9520080D01*
X47878825Y9782901D01*
X47923476Y9930110D01*
X47802156Y10159998D01*
X47967000Y10159998D01*
X47967000Y10267199D01*
X48864999Y9369199D01*
X48865000Y8452331D01*
X48861323Y8414999D01*
X48865000Y8377666D01*
X48872820Y8298275D01*
X48875997Y8266014D01*
X48919453Y8122753D01*
X48990025Y7990723D01*
X49054430Y7912246D01*
X49084999Y7874998D01*
X49113997Y7851200D01*
X52981980Y3983216D01*
X52768966Y3918599D01*
X52510986Y3780706D01*
X52284866Y3595134D01*
X52260393Y3565313D01*
X52239502Y3634180D01*
X52180537Y3744494D01*
X52101185Y3841185D01*
X52004494Y3920537D01*
X51894180Y3979502D01*
X51774482Y4015812D01*
X51650000Y4028072D01*
X49950000Y4028072D01*
X49825518Y4015812D01*
X49705820Y3979502D01*
X49595506Y3920537D01*
X49498815Y3841185D01*
X49419463Y3744494D01*
X49360498Y3634180D01*
X49324188Y3514482D01*
X49311928Y3390000D01*
X49311928Y1690000D01*
X49324188Y1565518D01*
X49360498Y1445820D01*
X49419463Y1335506D01*
X49498815Y1238815D01*
X49595506Y1159463D01*
X49705820Y1100498D01*
X49825518Y1064188D01*
X49950000Y1051928D01*
X51650000Y1051928D01*
X51774482Y1064188D01*
X51894180Y1100498D01*
X52004494Y1159463D01*
X52101185Y1238815D01*
X52180537Y1335506D01*
X52239502Y1445820D01*
X52260393Y1514687D01*
X52284866Y1484866D01*
X52510986Y1299294D01*
X52768966Y1161401D01*
X53048889Y1076487D01*
X53267050Y1055000D01*
X53412950Y1055000D01*
X53631111Y1076487D01*
X53911034Y1161401D01*
X54169014Y1299294D01*
X54395134Y1484866D01*
X54580706Y1710986D01*
X54610000Y1765791D01*
X54639294Y1710986D01*
X54824866Y1484866D01*
X55050986Y1299294D01*
X55308966Y1161401D01*
X55588889Y1076487D01*
X55807050Y1055000D01*
X55952950Y1055000D01*
X56171111Y1076487D01*
X56451034Y1161401D01*
X56709014Y1299294D01*
X56935134Y1484866D01*
X57120706Y1710986D01*
X57150000Y1765791D01*
X57179294Y1710986D01*
X57364866Y1484866D01*
X57590986Y1299294D01*
X57848966Y1161401D01*
X58128889Y1076487D01*
X58347050Y1055000D01*
X58492950Y1055000D01*
X58711111Y1076487D01*
X58991034Y1161401D01*
X59249014Y1299294D01*
X59475134Y1484866D01*
X59660706Y1710986D01*
X59690000Y1765791D01*
X59719294Y1710986D01*
X59904866Y1484866D01*
X60130986Y1299294D01*
X60388966Y1161401D01*
X60668889Y1076487D01*
X60887050Y1055000D01*
X61032950Y1055000D01*
X61251111Y1076487D01*
X61531034Y1161401D01*
X61789014Y1299294D01*
X62015134Y1484866D01*
X62200706Y1710986D01*
X62230000Y1765791D01*
X62259294Y1710986D01*
X62444866Y1484866D01*
X62670986Y1299294D01*
X62928966Y1161401D01*
X63208889Y1076487D01*
X63427050Y1055000D01*
X63572950Y1055000D01*
X63791111Y1076487D01*
X64071034Y1161401D01*
X64329014Y1299294D01*
X64555134Y1484866D01*
X64740706Y1710986D01*
X64878599Y1968966D01*
X64963513Y2248889D01*
X64992185Y2540000D01*
X64963513Y2831111D01*
X64878599Y3111034D01*
X64740706Y3369014D01*
X64555134Y3595134D01*
X64329014Y3780706D01*
X64071034Y3918599D01*
X63791111Y4003513D01*
X63572950Y4025000D01*
X63427050Y4025000D01*
X63208889Y4003513D01*
X63134005Y3980797D01*
X54538804Y12575997D01*
X54515001Y12605001D01*
X54399276Y12699974D01*
X54267247Y12770546D01*
X54123986Y12814003D01*
X54012333Y12825000D01*
X54012322Y12825000D01*
X53975000Y12828676D01*
X53937678Y12825000D01*
X52077595Y12825000D01*
X52040706Y12894014D01*
X51855134Y13120134D01*
X51629014Y13305706D01*
X51574209Y13335000D01*
X51629014Y13364294D01*
X51855134Y13549866D01*
X52040706Y13775986D01*
X52178599Y14033966D01*
X52263513Y14313889D01*
X52292185Y14605000D01*
X52263513Y14896111D01*
X52178599Y15176034D01*
X52040706Y15434014D01*
X51855134Y15660134D01*
X51629014Y15845706D01*
X51574209Y15875000D01*
X51629014Y15904294D01*
X51855134Y16089866D01*
X52040706Y16315986D01*
X52178599Y16573966D01*
X52263513Y16853889D01*
X52292185Y17145000D01*
X52263513Y17436111D01*
X52178599Y17716034D01*
X52040706Y17974014D01*
X51855134Y18200134D01*
X51629014Y18385706D01*
X51371034Y18523599D01*
X51091111Y18608513D01*
X50872950Y18630000D01*
X50727050Y18630000D01*
X50508889Y18608513D01*
X50228966Y18523599D01*
X49970986Y18385706D01*
X49744866Y18200134D01*
X49559294Y17974014D01*
X49421401Y17716034D01*
X49336487Y17436111D01*
X49307815Y17145000D01*
X49336487Y16853889D01*
X49421401Y16573966D01*
X49559294Y16315986D01*
X49744866Y16089866D01*
X49970986Y15904294D01*
X50025791Y15875000D01*
X49970986Y15845706D01*
X49744866Y15660134D01*
X49559294Y15434014D01*
X49421401Y15176034D01*
X49336487Y14896111D01*
X49310235Y14629567D01*
X47970072Y15969729D01*
X47970072Y16217000D01*
X47957812Y16341482D01*
X47921502Y16461180D01*
X47862537Y16571494D01*
X47783185Y16668185D01*
X47686494Y16747537D01*
X47576180Y16806502D01*
X47456482Y16842812D01*
X47332000Y16855072D01*
X45632000Y16855072D01*
X45507518Y16842812D01*
X45387820Y16806502D01*
X45277506Y16747537D01*
X45180815Y16668185D01*
X45101463Y16571494D01*
X45042498Y16461180D01*
X45006188Y16341482D01*
X44993928Y16217000D01*
X44993928Y15588730D01*
X37785199Y8380000D01*
X22652571Y8380000D01*
X22602106Y8474414D01*
X22416534Y8700534D01*
X22190414Y8886106D01*
X22135609Y8915400D01*
X22190414Y8944694D01*
X22416534Y9130266D01*
X22602106Y9356386D01*
X22739999Y9614366D01*
X22824913Y9894289D01*
X22853585Y10185400D01*
X22824913Y10476511D01*
X22766219Y10670000D01*
X35548078Y10670000D01*
X35585400Y10666324D01*
X35622722Y10670000D01*
X35622733Y10670000D01*
X35734386Y10680997D01*
X35877647Y10724454D01*
X36009676Y10795026D01*
X36125401Y10889999D01*
X36149204Y10919003D01*
X46060202Y20830000D01*
X59652678Y20830000D01*
X59690000Y20826324D01*
X59727322Y20830000D01*
X59727333Y20830000D01*
X59838986Y20840997D01*
X59982247Y20884454D01*
X60114276Y20955026D01*
X60230001Y21049999D01*
X60253804Y21079003D01*
X64011004Y24836202D01*
X64040001Y24859999D01*
X64134974Y24975724D01*
X64205546Y25107753D01*
X64249003Y25251014D01*
X64260000Y25362667D01*
X64260000Y25362675D01*
X64263676Y25400000D01*
X64260000Y25437325D01*
X64260000Y45077405D01*
X64329014Y45114294D01*
X64555134Y45299866D01*
X64740706Y45525986D01*
X64878599Y45783966D01*
X64963513Y46063889D01*
X64992185Y46355000D01*
X64963513Y46646111D01*
X64878599Y46926034D01*
X64740706Y47184014D01*
X64555134Y47410134D01*
X64329014Y47595706D01*
X64260000Y47632595D01*
X64260000Y48222678D01*
X64263676Y48260001D01*
X64260000Y48297324D01*
X64260000Y48297333D01*
X64249003Y48408986D01*
X64205546Y48552247D01*
X64134974Y48684276D01*
X64121811Y48700315D01*
X64063799Y48771004D01*
X64063795Y48771008D01*
X64040001Y48800001D01*
X64011009Y48823794D01*
X63519803Y49315000D01*
X63572950Y49315000D01*
X63791111Y49336487D01*
X64071034Y49421401D01*
X64329014Y49559294D01*
X64555134Y49744866D01*
X64740706Y49970986D01*
X64878599Y50228966D01*
X64963513Y50508889D01*
X64992185Y50800000D01*
X64963513Y51091111D01*
X64878599Y51371034D01*
X64740706Y51629014D01*
X64555134Y51855134D01*
X64329014Y52040706D01*
X64071034Y52178599D01*
X64026777Y52192024D01*
X64657377Y52194532D01*
X65149468Y51702440D01*
G36*
X60940198Y4025000D02*
G01*
X60887050Y4025000D01*
X60668889Y4003513D01*
X60594004Y3980797D01*
X60348803Y4225998D01*
X60325000Y4255002D01*
X60209275Y4349975D01*
X60077246Y4420547D01*
X59933985Y4464004D01*
X59822332Y4475001D01*
X59822321Y4475001D01*
X59784999Y4478677D01*
X59747677Y4475001D01*
X54639799Y4475001D01*
X50927002Y8187797D01*
X50927002Y8198748D01*
X51085750Y8040000D01*
X51650000Y8036928D01*
X51774482Y8049188D01*
X51894180Y8085498D01*
X52004494Y8144463D01*
X52101185Y8223815D01*
X52180537Y8320506D01*
X52239502Y8430820D01*
X52275812Y8550518D01*
X52288072Y8675000D01*
X52285000Y9239250D01*
X52126250Y9398000D01*
X50927000Y9398000D01*
X50927000Y9378000D01*
X50673000Y9378000D01*
X50673000Y9398000D01*
X50653000Y9398000D01*
X50653000Y9652000D01*
X50673000Y9652000D01*
X50673000Y9672000D01*
X50927000Y9672000D01*
X50927000Y9652000D01*
X52126250Y9652000D01*
X52285000Y9810750D01*
X52288072Y10375000D01*
X52275812Y10499482D01*
X52239502Y10619180D01*
X52180537Y10729494D01*
X52101185Y10826185D01*
X52004494Y10905537D01*
X51894180Y10964502D01*
X51825313Y10985393D01*
X51855134Y11009866D01*
X52040706Y11235986D01*
X52077595Y11305000D01*
X53660199Y11305000D01*
X60940198Y4025000D01*
X60940198Y4025000D01*
G37*
X60940198Y4025000D02*
X60887050Y4025000D01*
X60668889Y4003513D01*
X60594004Y3980797D01*
X60348803Y4225998D01*
X60325000Y4255002D01*
X60209275Y4349975D01*
X60077246Y4420547D01*
X59933985Y4464004D01*
X59822332Y4475001D01*
X59822321Y4475001D01*
X59784999Y4478677D01*
X59747677Y4475001D01*
X54639799Y4475001D01*
X50927002Y8187797D01*
X50927002Y8198748D01*
X51085750Y8040000D01*
X51650000Y8036928D01*
X51774482Y8049188D01*
X51894180Y8085498D01*
X52004494Y8144463D01*
X52101185Y8223815D01*
X52180537Y8320506D01*
X52239502Y8430820D01*
X52275812Y8550518D01*
X52288072Y8675000D01*
X52285000Y9239250D01*
X52126250Y9398000D01*
X50927000Y9398000D01*
X50927000Y9378000D01*
X50673000Y9378000D01*
X50673000Y9398000D01*
X50653000Y9398000D01*
X50653000Y9652000D01*
X50673000Y9652000D01*
X50673000Y9672000D01*
X50927000Y9672000D01*
X50927000Y9652000D01*
X52126250Y9652000D01*
X52285000Y9810750D01*
X52288072Y10375000D01*
X52275812Y10499482D01*
X52239502Y10619180D01*
X52180537Y10729494D01*
X52101185Y10826185D01*
X52004494Y10905537D01*
X51894180Y10964502D01*
X51825313Y10985393D01*
X51855134Y11009866D01*
X52040706Y11235986D01*
X52077595Y11305000D01*
X53660199Y11305000D01*
X60940198Y4025000D01*
G36*
X46609000Y10414000D02*
G01*
X46629000Y10414000D01*
X46629000Y10160000D01*
X46609000Y10160000D01*
X46609000Y10140000D01*
X46355000Y10140000D01*
X46355000Y10160000D01*
X46335000Y10160000D01*
X46335000Y10414000D01*
X46355000Y10414000D01*
X46355000Y10434000D01*
X46609000Y10434000D01*
X46609000Y10414000D01*
X46609000Y10414000D01*
G37*
X46609000Y10414000D02*
X46629000Y10414000D01*
X46629000Y10160000D01*
X46609000Y10160000D01*
X46609000Y10140000D01*
X46355000Y10140000D01*
X46355000Y10160000D01*
X46335000Y10160000D01*
X46335000Y10414000D01*
X46355000Y10414000D01*
X46355000Y10434000D01*
X46609000Y10434000D01*
X46609000Y10414000D01*
G36*
X44418815Y52101185D02*
G01*
X44339463Y52004494D01*
X44280498Y51894180D01*
X44244188Y51774482D01*
X44231928Y51650000D01*
X44231928Y49950000D01*
X44244188Y49825518D01*
X44280498Y49705820D01*
X44339463Y49595506D01*
X44418815Y49498815D01*
X44515506Y49419463D01*
X44625820Y49360498D01*
X44745518Y49324188D01*
X44870000Y49311928D01*
X46570000Y49311928D01*
X46694482Y49324188D01*
X46814180Y49360498D01*
X46924494Y49419463D01*
X47021185Y49498815D01*
X47100537Y49595506D01*
X47159502Y49705820D01*
X47180393Y49774687D01*
X47204866Y49744866D01*
X47430986Y49559294D01*
X47688966Y49421401D01*
X47968889Y49336487D01*
X48187050Y49315000D01*
X48332950Y49315000D01*
X48551111Y49336487D01*
X48831034Y49421401D01*
X49089014Y49559294D01*
X49315134Y49744866D01*
X49500706Y49970986D01*
X49530000Y50025791D01*
X49559294Y49970986D01*
X49744866Y49744866D01*
X49970986Y49559294D01*
X50228966Y49421401D01*
X50508889Y49336487D01*
X50727050Y49315000D01*
X50872950Y49315000D01*
X51091111Y49336487D01*
X51371034Y49421401D01*
X51629014Y49559294D01*
X51855134Y49744866D01*
X52040706Y49970986D01*
X52070000Y50025791D01*
X52099294Y49970986D01*
X52284866Y49744866D01*
X52510986Y49559294D01*
X52768966Y49421401D01*
X53048889Y49336487D01*
X53267050Y49315000D01*
X53412950Y49315000D01*
X53631111Y49336487D01*
X53911034Y49421401D01*
X54169014Y49559294D01*
X54395134Y49744866D01*
X54580706Y49970986D01*
X54610000Y50025791D01*
X54639294Y49970986D01*
X54824866Y49744866D01*
X55050986Y49559294D01*
X55308966Y49421401D01*
X55588889Y49336487D01*
X55807050Y49315000D01*
X55952950Y49315000D01*
X56171111Y49336487D01*
X56451034Y49421401D01*
X56709014Y49559294D01*
X56935134Y49744866D01*
X57120706Y49970986D01*
X57150000Y50025791D01*
X57179294Y49970986D01*
X57364866Y49744866D01*
X57590986Y49559294D01*
X57848966Y49421401D01*
X58128889Y49336487D01*
X58347050Y49315000D01*
X58492950Y49315000D01*
X58711111Y49336487D01*
X58991034Y49421401D01*
X59249014Y49559294D01*
X59475134Y49744866D01*
X59660706Y49970986D01*
X59690000Y50025791D01*
X59719294Y49970986D01*
X59904866Y49744866D01*
X60130986Y49559294D01*
X60388966Y49421401D01*
X60668889Y49336487D01*
X60887050Y49315000D01*
X61032950Y49315000D01*
X61251111Y49336487D01*
X61325995Y49359203D01*
X62740000Y47945197D01*
X62740000Y47632595D01*
X62670986Y47595706D01*
X62444866Y47410134D01*
X62259294Y47184014D01*
X62230000Y47129209D01*
X62200706Y47184014D01*
X62015134Y47410134D01*
X61789014Y47595706D01*
X61531034Y47733599D01*
X61251111Y47818513D01*
X61032950Y47840000D01*
X60887050Y47840000D01*
X60668889Y47818513D01*
X60388966Y47733599D01*
X60130986Y47595706D01*
X59904866Y47410134D01*
X59719294Y47184014D01*
X59690000Y47129209D01*
X59660706Y47184014D01*
X59475134Y47410134D01*
X59249014Y47595706D01*
X58991034Y47733599D01*
X58711111Y47818513D01*
X58492950Y47840000D01*
X58347050Y47840000D01*
X58128889Y47818513D01*
X57848966Y47733599D01*
X57590986Y47595706D01*
X57364866Y47410134D01*
X57340393Y47380313D01*
X57319502Y47449180D01*
X57260537Y47559494D01*
X57181185Y47656185D01*
X57084494Y47735537D01*
X56974180Y47794502D01*
X56854482Y47830812D01*
X56730000Y47843072D01*
X55030000Y47843072D01*
X54905518Y47830812D01*
X54785820Y47794502D01*
X54675506Y47735537D01*
X54578815Y47656185D01*
X54499463Y47559494D01*
X54440498Y47449180D01*
X54404188Y47329482D01*
X54391928Y47205000D01*
X54391928Y45505000D01*
X54404188Y45380518D01*
X54440498Y45260820D01*
X54499463Y45150506D01*
X54578815Y45053815D01*
X54675506Y44974463D01*
X54785820Y44915498D01*
X54905518Y44879188D01*
X55030000Y44866928D01*
X56730000Y44866928D01*
X56854482Y44879188D01*
X56974180Y44915498D01*
X57084494Y44974463D01*
X57181185Y45053815D01*
X57260537Y45150506D01*
X57319502Y45260820D01*
X57340393Y45329687D01*
X57364866Y45299866D01*
X57590986Y45114294D01*
X57848966Y44976401D01*
X58128889Y44891487D01*
X58347050Y44870000D01*
X58492950Y44870000D01*
X58711111Y44891487D01*
X58991034Y44976401D01*
X59249014Y45114294D01*
X59475134Y45299866D01*
X59660706Y45525986D01*
X59690000Y45580791D01*
X59719294Y45525986D01*
X59904866Y45299866D01*
X60130986Y45114294D01*
X60200000Y45077405D01*
X60200001Y25714803D01*
X58740199Y24255000D01*
X45223922Y24255000D01*
X45186599Y24258676D01*
X45149276Y24255000D01*
X45149267Y24255000D01*
X45037614Y24244003D01*
X44894353Y24200546D01*
X44762324Y24129974D01*
X44646599Y24035001D01*
X44622801Y24006003D01*
X36428072Y15811273D01*
X36428072Y18645000D01*
X36415812Y18769482D01*
X36379502Y18889180D01*
X36320537Y18999494D01*
X36241185Y19096185D01*
X36144494Y19175537D01*
X36034180Y19234502D01*
X35914482Y19270812D01*
X35790000Y19283072D01*
X32790000Y19283072D01*
X32665518Y19270812D01*
X32545820Y19234502D01*
X32435506Y19175537D01*
X32338815Y19096185D01*
X32259463Y18999494D01*
X32200498Y18889180D01*
X32164188Y18769482D01*
X32151928Y18645000D01*
X32151928Y17905000D01*
X30159802Y17905000D01*
X27331455Y20733347D01*
X32977952Y20733347D01*
X33133962Y20417786D01*
X33508745Y20226980D01*
X33913551Y20112956D01*
X34332824Y20080098D01*
X34750451Y20129666D01*
X35150383Y20259757D01*
X35446038Y20417786D01*
X35602048Y20733347D01*
X34290000Y22045395D01*
X32977952Y20733347D01*
X27331455Y20733347D01*
X25882626Y22182176D01*
X32145098Y22182176D01*
X32194666Y21764549D01*
X32324757Y21364617D01*
X32482786Y21068962D01*
X32798347Y20912952D01*
X34110395Y22225000D01*
X34469605Y22225000D01*
X35781653Y20912952D01*
X36097214Y21068962D01*
X36288020Y21443745D01*
X36402044Y21848551D01*
X36434902Y22267824D01*
X36385334Y22685451D01*
X36255243Y23085383D01*
X36097214Y23381038D01*
X35781653Y23537048D01*
X34469605Y22225000D01*
X34110395Y22225000D01*
X32798347Y23537048D01*
X32482786Y23381038D01*
X32291980Y23006255D01*
X32177956Y22601449D01*
X32145098Y22182176D01*
X25882626Y22182176D01*
X25525000Y22539801D01*
X25525000Y25362668D01*
X25528677Y25400000D01*
X25525000Y25437333D01*
X25525000Y28260199D01*
X29524802Y32260000D01*
X31619928Y32260000D01*
X31619928Y32258000D01*
X31632188Y32133518D01*
X31668498Y32013820D01*
X31727463Y31903506D01*
X31806815Y31806815D01*
X31903506Y31727463D01*
X32013820Y31668498D01*
X32133518Y31632188D01*
X32258000Y31619928D01*
X33782000Y31619928D01*
X33906482Y31632188D01*
X34026180Y31668498D01*
X34136494Y31727463D01*
X34233185Y31806815D01*
X34312537Y31903506D01*
X34371502Y32013820D01*
X34407812Y32133518D01*
X34416080Y32217465D01*
X34474880Y32129465D01*
X34669465Y31934880D01*
X34898273Y31781995D01*
X35152510Y31676686D01*
X35422408Y31623000D01*
X35697592Y31623000D01*
X35967490Y31676686D01*
X36221727Y31781995D01*
X36450535Y31934880D01*
X36645120Y32129465D01*
X36798005Y32358273D01*
X36903314Y32612510D01*
X36957000Y32882408D01*
X36957000Y33157592D01*
X36903314Y33427490D01*
X36798005Y33681727D01*
X36645120Y33910535D01*
X36450535Y34105120D01*
X36320000Y34192341D01*
X36320000Y36187405D01*
X36389014Y36224294D01*
X36615134Y36409866D01*
X36639607Y36439687D01*
X36660498Y36370820D01*
X36719463Y36260506D01*
X36798815Y36163815D01*
X36895506Y36084463D01*
X37005820Y36025498D01*
X37125518Y35989188D01*
X37250000Y35976928D01*
X37340001Y35976928D01*
X37340000Y30794803D01*
X35851570Y29306372D01*
X35697592Y29337000D01*
X35422408Y29337000D01*
X35152510Y29283314D01*
X34898273Y29178005D01*
X34669465Y29025120D01*
X34474880Y28830535D01*
X34321995Y28601727D01*
X34290000Y28524485D01*
X34258005Y28601727D01*
X34105120Y28830535D01*
X33910535Y29025120D01*
X33681727Y29178005D01*
X33427490Y29283314D01*
X33157592Y29337000D01*
X32882408Y29337000D01*
X32612510Y29283314D01*
X32358273Y29178005D01*
X32129465Y29025120D01*
X31934880Y28830535D01*
X31781995Y28601727D01*
X31676686Y28347490D01*
X31623000Y28077592D01*
X31623000Y27802408D01*
X31676686Y27532510D01*
X31781995Y27278273D01*
X31934880Y27049465D01*
X32129465Y26854880D01*
X32358273Y26701995D01*
X32612510Y26596686D01*
X32882408Y26543000D01*
X33088199Y26543000D01*
X31435199Y24890000D01*
X29043072Y24890000D01*
X29043072Y25230000D01*
X29030812Y25354482D01*
X28994502Y25474180D01*
X28935537Y25584494D01*
X28856185Y25681185D01*
X28759494Y25760537D01*
X28649180Y25819502D01*
X28529482Y25855812D01*
X28405000Y25868072D01*
X26205000Y25868072D01*
X26080518Y25855812D01*
X25960820Y25819502D01*
X25850506Y25760537D01*
X25753815Y25681185D01*
X25674463Y25584494D01*
X25615498Y25474180D01*
X25579188Y25354482D01*
X25566928Y25230000D01*
X25566928Y23030000D01*
X25579188Y22905518D01*
X25615498Y22785820D01*
X25674463Y22675506D01*
X25753815Y22578815D01*
X25850506Y22499463D01*
X25960820Y22440498D01*
X26080518Y22404188D01*
X26205000Y22391928D01*
X28405000Y22391928D01*
X28529482Y22404188D01*
X28649180Y22440498D01*
X28759494Y22499463D01*
X28856185Y22578815D01*
X28935537Y22675506D01*
X28994502Y22785820D01*
X29030812Y22905518D01*
X29043072Y23030000D01*
X29043072Y23370000D01*
X31712678Y23370000D01*
X31750000Y23366324D01*
X31787322Y23370000D01*
X31787333Y23370000D01*
X31898986Y23380997D01*
X32042247Y23424454D01*
X32174276Y23495026D01*
X32290001Y23589999D01*
X32313804Y23619003D01*
X32411454Y23716653D01*
X32977952Y23716653D01*
X34290000Y22404605D01*
X35602048Y23716653D01*
X35446038Y24032214D01*
X35071255Y24223020D01*
X34666449Y24337044D01*
X34247176Y24369902D01*
X33829549Y24320334D01*
X33429617Y24190243D01*
X33133962Y24032214D01*
X32977952Y23716653D01*
X32411454Y23716653D01*
X35268430Y26573628D01*
X35422408Y26543000D01*
X35697592Y26543000D01*
X35967490Y26596686D01*
X36221727Y26701995D01*
X36450535Y26854880D01*
X36570090Y26974435D01*
X42394040Y26974435D01*
X42461020Y26734344D01*
X42710048Y26617244D01*
X42977135Y26550977D01*
X43252017Y26538090D01*
X43524133Y26579078D01*
X43783023Y26672364D01*
X43898980Y26734344D01*
X43965960Y26974435D01*
X43180000Y27760395D01*
X42394040Y26974435D01*
X36570090Y26974435D01*
X36645120Y27049465D01*
X36798005Y27278273D01*
X36903314Y27532510D01*
X36957000Y27802408D01*
X36957000Y27867983D01*
X41778090Y27867983D01*
X41819078Y27595867D01*
X41912364Y27336977D01*
X41974344Y27221020D01*
X42214435Y27154040D01*
X43000395Y27940000D01*
X43359605Y27940000D01*
X44145565Y27154040D01*
X44385656Y27221020D01*
X44502756Y27470048D01*
X44569023Y27737135D01*
X44581910Y28012017D01*
X44540922Y28284133D01*
X44447636Y28543023D01*
X44385656Y28658980D01*
X44145565Y28725960D01*
X43359605Y27940000D01*
X43000395Y27940000D01*
X42214435Y28725960D01*
X41974344Y28658980D01*
X41857244Y28409952D01*
X41790977Y28142865D01*
X41778090Y27867983D01*
X36957000Y27867983D01*
X36957000Y28077592D01*
X36926372Y28231570D01*
X37600367Y28905565D01*
X42394040Y28905565D01*
X43180000Y28119605D01*
X43965960Y28905565D01*
X43898980Y29145656D01*
X43649952Y29262756D01*
X43382865Y29329023D01*
X43107983Y29341910D01*
X42835867Y29300922D01*
X42576977Y29207636D01*
X42461020Y29145656D01*
X42394040Y28905565D01*
X37600367Y28905565D01*
X38611009Y29916206D01*
X38640001Y29939999D01*
X38663795Y29968992D01*
X38663799Y29968996D01*
X38734973Y30055723D01*
X38734974Y30055724D01*
X38805546Y30187753D01*
X38849003Y30331014D01*
X38860000Y30442667D01*
X38860000Y30442676D01*
X38863676Y30479999D01*
X38860000Y30517322D01*
X38860000Y32054435D01*
X42394040Y32054435D01*
X42461020Y31814344D01*
X42710048Y31697244D01*
X42977135Y31630977D01*
X43252017Y31618090D01*
X43524133Y31659078D01*
X43783023Y31752364D01*
X43898980Y31814344D01*
X43965960Y32054435D01*
X43180000Y32840395D01*
X42394040Y32054435D01*
X38860000Y32054435D01*
X38860000Y32947983D01*
X41778090Y32947983D01*
X41819078Y32675867D01*
X41912364Y32416977D01*
X41974344Y32301020D01*
X42214435Y32234040D01*
X43000395Y33020000D01*
X43359605Y33020000D01*
X44145565Y32234040D01*
X44385656Y32301020D01*
X44502756Y32550048D01*
X44569023Y32817135D01*
X44581910Y33092017D01*
X44540922Y33364133D01*
X44447636Y33623023D01*
X44385656Y33738980D01*
X44145565Y33805960D01*
X43359605Y33020000D01*
X43000395Y33020000D01*
X42214435Y33805960D01*
X41974344Y33738980D01*
X41857244Y33489952D01*
X41790977Y33222865D01*
X41778090Y32947983D01*
X38860000Y32947983D01*
X38860000Y33985565D01*
X42394040Y33985565D01*
X43180000Y33199605D01*
X43965960Y33985565D01*
X43898980Y34225656D01*
X43649952Y34342756D01*
X43382865Y34409023D01*
X43107983Y34421910D01*
X42835867Y34380922D01*
X42576977Y34287636D01*
X42461020Y34225656D01*
X42394040Y33985565D01*
X38860000Y33985565D01*
X38860000Y35976928D01*
X38950000Y35976928D01*
X39074482Y35989188D01*
X39194180Y36025498D01*
X39304494Y36084463D01*
X39401185Y36163815D01*
X39480537Y36260506D01*
X39539502Y36370820D01*
X39575812Y36490518D01*
X39588072Y36615000D01*
X39588072Y38315000D01*
X39575812Y38439482D01*
X39539502Y38559180D01*
X39480537Y38669494D01*
X39401185Y38766185D01*
X39304494Y38845537D01*
X39194180Y38904502D01*
X39074482Y38940812D01*
X38950000Y38953072D01*
X37250000Y38953072D01*
X37125518Y38940812D01*
X37005820Y38904502D01*
X36895506Y38845537D01*
X36798815Y38766185D01*
X36719463Y38669494D01*
X36660498Y38559180D01*
X36639607Y38490313D01*
X36615134Y38520134D01*
X36389014Y38705706D01*
X36131034Y38843599D01*
X35851111Y38928513D01*
X35632950Y38950000D01*
X35487050Y38950000D01*
X35268889Y38928513D01*
X34988966Y38843599D01*
X34730986Y38705706D01*
X34504866Y38520134D01*
X34319294Y38294014D01*
X34282405Y38225000D01*
X30517322Y38225000D01*
X30479999Y38228676D01*
X30442676Y38225000D01*
X30442667Y38225000D01*
X30331014Y38214003D01*
X30187753Y38170546D01*
X30055723Y38099974D01*
X29977813Y38036034D01*
X29939999Y38005001D01*
X29916201Y37976003D01*
X27871440Y35931241D01*
X27645119Y35999895D01*
X27390225Y36025000D01*
X27219775Y36025000D01*
X26964881Y35999895D01*
X26637832Y35900686D01*
X26336422Y35739579D01*
X26072234Y35522766D01*
X25855421Y35258578D01*
X25694314Y34957168D01*
X25595105Y34630119D01*
X25561606Y34290000D01*
X25595105Y33949881D01*
X25694314Y33622832D01*
X25855421Y33321422D01*
X26072234Y33057234D01*
X26336422Y32840421D01*
X26637832Y32679314D01*
X26964881Y32580105D01*
X27219775Y32555000D01*
X27390225Y32555000D01*
X27645119Y32580105D01*
X27717155Y32601957D01*
X24253998Y29138799D01*
X24225000Y29115001D01*
X24201202Y29086003D01*
X24201201Y29086002D01*
X24130026Y28999276D01*
X24059454Y28867246D01*
X24037362Y28794414D01*
X24015998Y28723986D01*
X24009595Y28658980D01*
X24001324Y28575000D01*
X24005001Y28537668D01*
X24005000Y26160000D01*
X22652571Y26160000D01*
X22602106Y26254414D01*
X22416534Y26480534D01*
X22190414Y26666106D01*
X22135609Y26695400D01*
X22190414Y26724694D01*
X22416534Y26910266D01*
X22602106Y27136386D01*
X22739999Y27394366D01*
X22824913Y27674289D01*
X22853585Y27965400D01*
X22824913Y28256511D01*
X22739999Y28536434D01*
X22602106Y28794414D01*
X22416534Y29020534D01*
X22190414Y29206106D01*
X22135609Y29235400D01*
X22190414Y29264694D01*
X22416534Y29450266D01*
X22602106Y29676386D01*
X22739999Y29934366D01*
X22824913Y30214289D01*
X22853585Y30505400D01*
X22824913Y30796511D01*
X22739999Y31076434D01*
X22602106Y31334414D01*
X22416534Y31560534D01*
X22190414Y31746106D01*
X22125877Y31780601D01*
X22242755Y31850222D01*
X22458988Y32045131D01*
X22633041Y32278480D01*
X22758225Y32541301D01*
X22802876Y32688510D01*
X22681555Y32918400D01*
X21488400Y32918400D01*
X21488400Y32898400D01*
X21234400Y32898400D01*
X21234400Y32918400D01*
X21214400Y32918400D01*
X21214400Y33172400D01*
X21234400Y33172400D01*
X21234400Y33192400D01*
X21488400Y33192400D01*
X21488400Y33172400D01*
X22681555Y33172400D01*
X22802876Y33402290D01*
X22758225Y33549499D01*
X22633041Y33812320D01*
X22458988Y34045669D01*
X22242755Y34240578D01*
X22125877Y34310199D01*
X22190414Y34344694D01*
X22416534Y34530266D01*
X22602106Y34756386D01*
X22739999Y35014366D01*
X22824913Y35294289D01*
X22853585Y35585400D01*
X22824913Y35876511D01*
X22739999Y36156434D01*
X22602106Y36414414D01*
X22416534Y36640534D01*
X22190414Y36826106D01*
X22135609Y36855400D01*
X22190414Y36884694D01*
X22416534Y37070266D01*
X22602106Y37296386D01*
X22739999Y37554366D01*
X22824913Y37834289D01*
X22853585Y38125400D01*
X22824913Y38416511D01*
X22739999Y38696434D01*
X22602106Y38954414D01*
X22416534Y39180534D01*
X22190414Y39366106D01*
X22135609Y39395400D01*
X22190414Y39424694D01*
X22416534Y39610266D01*
X22602106Y39836386D01*
X22739999Y40094366D01*
X22824913Y40374289D01*
X22853585Y40665400D01*
X22824913Y40956511D01*
X22739999Y41236434D01*
X22719386Y41275000D01*
X49307815Y41275000D01*
X49336487Y40983889D01*
X49421401Y40703966D01*
X49559294Y40445986D01*
X49744866Y40219866D01*
X49970986Y40034294D01*
X50025791Y40005000D01*
X49970986Y39975706D01*
X49744866Y39790134D01*
X49559294Y39564014D01*
X49421401Y39306034D01*
X49336487Y39026111D01*
X49307815Y38735000D01*
X49336487Y38443889D01*
X49421401Y38163966D01*
X49559294Y37905986D01*
X49744866Y37679866D01*
X49970986Y37494294D01*
X50025791Y37465000D01*
X49970986Y37435706D01*
X49744866Y37250134D01*
X49559294Y37024014D01*
X49421401Y36766034D01*
X49336487Y36486111D01*
X49307815Y36195000D01*
X49336487Y35903889D01*
X49421401Y35623966D01*
X49559294Y35365986D01*
X49744866Y35139866D01*
X49970986Y34954294D01*
X50025791Y34925000D01*
X49970986Y34895706D01*
X49744866Y34710134D01*
X49559294Y34484014D01*
X49421401Y34226034D01*
X49336487Y33946111D01*
X49307815Y33655000D01*
X49336487Y33363889D01*
X49421401Y33083966D01*
X49559294Y32825986D01*
X49744866Y32599866D01*
X49970986Y32414294D01*
X50025791Y32385000D01*
X49970986Y32355706D01*
X49744866Y32170134D01*
X49559294Y31944014D01*
X49421401Y31686034D01*
X49336487Y31406111D01*
X49307815Y31115000D01*
X49336487Y30823889D01*
X49421401Y30543966D01*
X49559294Y30285986D01*
X49744866Y30059866D01*
X49970986Y29874294D01*
X50025791Y29845000D01*
X49970986Y29815706D01*
X49744866Y29630134D01*
X49559294Y29404014D01*
X49421401Y29146034D01*
X49336487Y28866111D01*
X49307815Y28575000D01*
X49336487Y28283889D01*
X49421401Y28003966D01*
X49559294Y27745986D01*
X49744866Y27519866D01*
X49774687Y27495393D01*
X49705820Y27474502D01*
X49595506Y27415537D01*
X49498815Y27336185D01*
X49419463Y27239494D01*
X49360498Y27129180D01*
X49324188Y27009482D01*
X49311928Y26885000D01*
X49311928Y25185000D01*
X49324188Y25060518D01*
X49360498Y24940820D01*
X49419463Y24830506D01*
X49498815Y24733815D01*
X49595506Y24654463D01*
X49705820Y24595498D01*
X49825518Y24559188D01*
X49950000Y24546928D01*
X51650000Y24546928D01*
X51774482Y24559188D01*
X51894180Y24595498D01*
X52004494Y24654463D01*
X52101185Y24733815D01*
X52180537Y24830506D01*
X52239502Y24940820D01*
X52275812Y25060518D01*
X52288072Y25185000D01*
X52288072Y26885000D01*
X52275812Y27009482D01*
X52239502Y27129180D01*
X52180537Y27239494D01*
X52101185Y27336185D01*
X52004494Y27415537D01*
X51894180Y27474502D01*
X51825313Y27495393D01*
X51855134Y27519866D01*
X52040706Y27745986D01*
X52178599Y28003966D01*
X52263513Y28283889D01*
X52292185Y28575000D01*
X52263513Y28866111D01*
X52178599Y29146034D01*
X52040706Y29404014D01*
X51855134Y29630134D01*
X51629014Y29815706D01*
X51574209Y29845000D01*
X51629014Y29874294D01*
X51855134Y30059866D01*
X52040706Y30285986D01*
X52178599Y30543966D01*
X52263513Y30823889D01*
X52292185Y31115000D01*
X52263513Y31406111D01*
X52178599Y31686034D01*
X52040706Y31944014D01*
X51855134Y32170134D01*
X51629014Y32355706D01*
X51574209Y32385000D01*
X51629014Y32414294D01*
X51855134Y32599866D01*
X52040706Y32825986D01*
X52178599Y33083966D01*
X52263513Y33363889D01*
X52292185Y33655000D01*
X52263513Y33946111D01*
X52178599Y34226034D01*
X52040706Y34484014D01*
X51855134Y34710134D01*
X51629014Y34895706D01*
X51574209Y34925000D01*
X51629014Y34954294D01*
X51855134Y35139866D01*
X52040706Y35365986D01*
X52178599Y35623966D01*
X52263513Y35903889D01*
X52292185Y36195000D01*
X52263513Y36486111D01*
X52178599Y36766034D01*
X52040706Y37024014D01*
X51855134Y37250134D01*
X51629014Y37435706D01*
X51574209Y37465000D01*
X51629014Y37494294D01*
X51855134Y37679866D01*
X52040706Y37905986D01*
X52178599Y38163966D01*
X52263513Y38443889D01*
X52292185Y38735000D01*
X52263513Y39026111D01*
X52178599Y39306034D01*
X52040706Y39564014D01*
X51855134Y39790134D01*
X51629014Y39975706D01*
X51574209Y40005000D01*
X51629014Y40034294D01*
X51855134Y40219866D01*
X52040706Y40445986D01*
X52178599Y40703966D01*
X52263513Y40983889D01*
X52292185Y41275000D01*
X52263513Y41566111D01*
X52178599Y41846034D01*
X52040706Y42104014D01*
X51855134Y42330134D01*
X51629014Y42515706D01*
X51371034Y42653599D01*
X51091111Y42738513D01*
X50872950Y42760000D01*
X50727050Y42760000D01*
X50508889Y42738513D01*
X50228966Y42653599D01*
X49970986Y42515706D01*
X49744866Y42330134D01*
X49559294Y42104014D01*
X49421401Y41846034D01*
X49336487Y41566111D01*
X49307815Y41275000D01*
X22719386Y41275000D01*
X22602106Y41494414D01*
X22416534Y41720534D01*
X22190414Y41906106D01*
X22135609Y41935400D01*
X22190414Y41964694D01*
X22416534Y42150266D01*
X22602106Y42376386D01*
X22739999Y42634366D01*
X22824913Y42914289D01*
X22853585Y43205400D01*
X22824913Y43496511D01*
X22739999Y43776434D01*
X22602106Y44034414D01*
X22416534Y44260534D01*
X22190414Y44446106D01*
X22135609Y44475400D01*
X22190414Y44504694D01*
X22416534Y44690266D01*
X22602106Y44916386D01*
X22739999Y45174366D01*
X22824913Y45454289D01*
X22853585Y45745400D01*
X22824913Y46036511D01*
X22739999Y46316434D01*
X22602106Y46574414D01*
X22416534Y46800534D01*
X22190414Y46986106D01*
X22135609Y47015400D01*
X22190414Y47044694D01*
X22416534Y47230266D01*
X22602106Y47456386D01*
X22739999Y47714366D01*
X22824913Y47994289D01*
X22853585Y48285400D01*
X22824913Y48576511D01*
X22739999Y48856434D01*
X22602106Y49114414D01*
X22416534Y49340534D01*
X22190414Y49526106D01*
X22125877Y49560601D01*
X22242755Y49630222D01*
X22458988Y49825131D01*
X22552126Y49950000D01*
X25181928Y49950000D01*
X25194188Y49825518D01*
X25230498Y49705820D01*
X25289463Y49595506D01*
X25368815Y49498815D01*
X25465506Y49419463D01*
X25575820Y49360498D01*
X25695518Y49324188D01*
X25820000Y49311928D01*
X26384250Y49315000D01*
X26543000Y49473750D01*
X26543000Y50673000D01*
X25343750Y50673000D01*
X25185000Y50514250D01*
X25181928Y49950000D01*
X22552126Y49950000D01*
X22633041Y50058480D01*
X22758225Y50321301D01*
X22802876Y50468510D01*
X22681555Y50698400D01*
X21488400Y50698400D01*
X21488400Y50678400D01*
X21234400Y50678400D01*
X21234400Y50698400D01*
X21214400Y50698400D01*
X21214400Y50952400D01*
X21234400Y50952400D01*
X21234400Y50972400D01*
X21488400Y50972400D01*
X21488400Y50952400D01*
X22681555Y50952400D01*
X22802876Y51182290D01*
X22758225Y51329499D01*
X22633041Y51592320D01*
X22458988Y51825669D01*
X22242755Y52020578D01*
X22233906Y52025849D01*
X25317050Y52038108D01*
X25289463Y52004494D01*
X25230498Y51894180D01*
X25194188Y51774482D01*
X25181928Y51650000D01*
X25185000Y51085750D01*
X25343750Y50927000D01*
X26543000Y50927000D01*
X26543000Y50947000D01*
X26797000Y50947000D01*
X26797000Y50927000D01*
X26817000Y50927000D01*
X26817000Y50673000D01*
X26797000Y50673000D01*
X26797000Y49473750D01*
X26955750Y49315000D01*
X27520000Y49311928D01*
X27644482Y49324188D01*
X27764180Y49360498D01*
X27874494Y49419463D01*
X27971185Y49498815D01*
X28050537Y49595506D01*
X28109502Y49705820D01*
X28130393Y49774687D01*
X28154866Y49744866D01*
X28380986Y49559294D01*
X28638966Y49421401D01*
X28918889Y49336487D01*
X29137050Y49315000D01*
X29282950Y49315000D01*
X29501111Y49336487D01*
X29781034Y49421401D01*
X30039014Y49559294D01*
X30265134Y49744866D01*
X30450706Y49970986D01*
X30480000Y50025791D01*
X30509294Y49970986D01*
X30694866Y49744866D01*
X30920986Y49559294D01*
X31178966Y49421401D01*
X31458889Y49336487D01*
X31677050Y49315000D01*
X31822950Y49315000D01*
X32041111Y49336487D01*
X32321034Y49421401D01*
X32579014Y49559294D01*
X32805134Y49744866D01*
X32990706Y49970986D01*
X33020000Y50025791D01*
X33049294Y49970986D01*
X33234866Y49744866D01*
X33460986Y49559294D01*
X33718966Y49421401D01*
X33998889Y49336487D01*
X34217050Y49315000D01*
X34362950Y49315000D01*
X34581111Y49336487D01*
X34861034Y49421401D01*
X35119014Y49559294D01*
X35345134Y49744866D01*
X35530706Y49970986D01*
X35560000Y50025791D01*
X35589294Y49970986D01*
X35774866Y49744866D01*
X36000986Y49559294D01*
X36258966Y49421401D01*
X36538889Y49336487D01*
X36757050Y49315000D01*
X36902950Y49315000D01*
X37121111Y49336487D01*
X37401034Y49421401D01*
X37659014Y49559294D01*
X37885134Y49744866D01*
X38070706Y49970986D01*
X38100000Y50025791D01*
X38129294Y49970986D01*
X38314866Y49744866D01*
X38540986Y49559294D01*
X38798966Y49421401D01*
X39078889Y49336487D01*
X39297050Y49315000D01*
X39442950Y49315000D01*
X39661111Y49336487D01*
X39941034Y49421401D01*
X40199014Y49559294D01*
X40425134Y49744866D01*
X40610706Y49970986D01*
X40640000Y50025791D01*
X40669294Y49970986D01*
X40854866Y49744866D01*
X41080986Y49559294D01*
X41338966Y49421401D01*
X41618889Y49336487D01*
X41837050Y49315000D01*
X41982950Y49315000D01*
X42201111Y49336487D01*
X42481034Y49421401D01*
X42739014Y49559294D01*
X42965134Y49744866D01*
X43150706Y49970986D01*
X43288599Y50228966D01*
X43373513Y50508889D01*
X43402185Y50800000D01*
X43373513Y51091111D01*
X43288599Y51371034D01*
X43150706Y51629014D01*
X42965134Y51855134D01*
X42739014Y52040706D01*
X42615195Y52106888D01*
X44434580Y52114123D01*
X44418815Y52101185D01*
X44418815Y52101185D01*
G37*
X44418815Y52101185D02*
X44339463Y52004494D01*
X44280498Y51894180D01*
X44244188Y51774482D01*
X44231928Y51650000D01*
X44231928Y49950000D01*
X44244188Y49825518D01*
X44280498Y49705820D01*
X44339463Y49595506D01*
X44418815Y49498815D01*
X44515506Y49419463D01*
X44625820Y49360498D01*
X44745518Y49324188D01*
X44870000Y49311928D01*
X46570000Y49311928D01*
X46694482Y49324188D01*
X46814180Y49360498D01*
X46924494Y49419463D01*
X47021185Y49498815D01*
X47100537Y49595506D01*
X47159502Y49705820D01*
X47180393Y49774687D01*
X47204866Y49744866D01*
X47430986Y49559294D01*
X47688966Y49421401D01*
X47968889Y49336487D01*
X48187050Y49315000D01*
X48332950Y49315000D01*
X48551111Y49336487D01*
X48831034Y49421401D01*
X49089014Y49559294D01*
X49315134Y49744866D01*
X49500706Y49970986D01*
X49530000Y50025791D01*
X49559294Y49970986D01*
X49744866Y49744866D01*
X49970986Y49559294D01*
X50228966Y49421401D01*
X50508889Y49336487D01*
X50727050Y49315000D01*
X50872950Y49315000D01*
X51091111Y49336487D01*
X51371034Y49421401D01*
X51629014Y49559294D01*
X51855134Y49744866D01*
X52040706Y49970986D01*
X52070000Y50025791D01*
X52099294Y49970986D01*
X52284866Y49744866D01*
X52510986Y49559294D01*
X52768966Y49421401D01*
X53048889Y49336487D01*
X53267050Y49315000D01*
X53412950Y49315000D01*
X53631111Y49336487D01*
X53911034Y49421401D01*
X54169014Y49559294D01*
X54395134Y49744866D01*
X54580706Y49970986D01*
X54610000Y50025791D01*
X54639294Y49970986D01*
X54824866Y49744866D01*
X55050986Y49559294D01*
X55308966Y49421401D01*
X55588889Y49336487D01*
X55807050Y49315000D01*
X55952950Y49315000D01*
X56171111Y49336487D01*
X56451034Y49421401D01*
X56709014Y49559294D01*
X56935134Y49744866D01*
X57120706Y49970986D01*
X57150000Y50025791D01*
X57179294Y49970986D01*
X57364866Y49744866D01*
X57590986Y49559294D01*
X57848966Y49421401D01*
X58128889Y49336487D01*
X58347050Y49315000D01*
X58492950Y49315000D01*
X58711111Y49336487D01*
X58991034Y49421401D01*
X59249014Y49559294D01*
X59475134Y49744866D01*
X59660706Y49970986D01*
X59690000Y50025791D01*
X59719294Y49970986D01*
X59904866Y49744866D01*
X60130986Y49559294D01*
X60388966Y49421401D01*
X60668889Y49336487D01*
X60887050Y49315000D01*
X61032950Y49315000D01*
X61251111Y49336487D01*
X61325995Y49359203D01*
X62740000Y47945197D01*
X62740000Y47632595D01*
X62670986Y47595706D01*
X62444866Y47410134D01*
X62259294Y47184014D01*
X62230000Y47129209D01*
X62200706Y47184014D01*
X62015134Y47410134D01*
X61789014Y47595706D01*
X61531034Y47733599D01*
X61251111Y47818513D01*
X61032950Y47840000D01*
X60887050Y47840000D01*
X60668889Y47818513D01*
X60388966Y47733599D01*
X60130986Y47595706D01*
X59904866Y47410134D01*
X59719294Y47184014D01*
X59690000Y47129209D01*
X59660706Y47184014D01*
X59475134Y47410134D01*
X59249014Y47595706D01*
X58991034Y47733599D01*
X58711111Y47818513D01*
X58492950Y47840000D01*
X58347050Y47840000D01*
X58128889Y47818513D01*
X57848966Y47733599D01*
X57590986Y47595706D01*
X57364866Y47410134D01*
X57340393Y47380313D01*
X57319502Y47449180D01*
X57260537Y47559494D01*
X57181185Y47656185D01*
X57084494Y47735537D01*
X56974180Y47794502D01*
X56854482Y47830812D01*
X56730000Y47843072D01*
X55030000Y47843072D01*
X54905518Y47830812D01*
X54785820Y47794502D01*
X54675506Y47735537D01*
X54578815Y47656185D01*
X54499463Y47559494D01*
X54440498Y47449180D01*
X54404188Y47329482D01*
X54391928Y47205000D01*
X54391928Y45505000D01*
X54404188Y45380518D01*
X54440498Y45260820D01*
X54499463Y45150506D01*
X54578815Y45053815D01*
X54675506Y44974463D01*
X54785820Y44915498D01*
X54905518Y44879188D01*
X55030000Y44866928D01*
X56730000Y44866928D01*
X56854482Y44879188D01*
X56974180Y44915498D01*
X57084494Y44974463D01*
X57181185Y45053815D01*
X57260537Y45150506D01*
X57319502Y45260820D01*
X57340393Y45329687D01*
X57364866Y45299866D01*
X57590986Y45114294D01*
X57848966Y44976401D01*
X58128889Y44891487D01*
X58347050Y44870000D01*
X58492950Y44870000D01*
X58711111Y44891487D01*
X58991034Y44976401D01*
X59249014Y45114294D01*
X59475134Y45299866D01*
X59660706Y45525986D01*
X59690000Y45580791D01*
X59719294Y45525986D01*
X59904866Y45299866D01*
X60130986Y45114294D01*
X60200000Y45077405D01*
X60200001Y25714803D01*
X58740199Y24255000D01*
X45223922Y24255000D01*
X45186599Y24258676D01*
X45149276Y24255000D01*
X45149267Y24255000D01*
X45037614Y24244003D01*
X44894353Y24200546D01*
X44762324Y24129974D01*
X44646599Y24035001D01*
X44622801Y24006003D01*
X36428072Y15811273D01*
X36428072Y18645000D01*
X36415812Y18769482D01*
X36379502Y18889180D01*
X36320537Y18999494D01*
X36241185Y19096185D01*
X36144494Y19175537D01*
X36034180Y19234502D01*
X35914482Y19270812D01*
X35790000Y19283072D01*
X32790000Y19283072D01*
X32665518Y19270812D01*
X32545820Y19234502D01*
X32435506Y19175537D01*
X32338815Y19096185D01*
X32259463Y18999494D01*
X32200498Y18889180D01*
X32164188Y18769482D01*
X32151928Y18645000D01*
X32151928Y17905000D01*
X30159802Y17905000D01*
X27331455Y20733347D01*
X32977952Y20733347D01*
X33133962Y20417786D01*
X33508745Y20226980D01*
X33913551Y20112956D01*
X34332824Y20080098D01*
X34750451Y20129666D01*
X35150383Y20259757D01*
X35446038Y20417786D01*
X35602048Y20733347D01*
X34290000Y22045395D01*
X32977952Y20733347D01*
X27331455Y20733347D01*
X25882626Y22182176D01*
X32145098Y22182176D01*
X32194666Y21764549D01*
X32324757Y21364617D01*
X32482786Y21068962D01*
X32798347Y20912952D01*
X34110395Y22225000D01*
X34469605Y22225000D01*
X35781653Y20912952D01*
X36097214Y21068962D01*
X36288020Y21443745D01*
X36402044Y21848551D01*
X36434902Y22267824D01*
X36385334Y22685451D01*
X36255243Y23085383D01*
X36097214Y23381038D01*
X35781653Y23537048D01*
X34469605Y22225000D01*
X34110395Y22225000D01*
X32798347Y23537048D01*
X32482786Y23381038D01*
X32291980Y23006255D01*
X32177956Y22601449D01*
X32145098Y22182176D01*
X25882626Y22182176D01*
X25525000Y22539801D01*
X25525000Y25362668D01*
X25528677Y25400000D01*
X25525000Y25437333D01*
X25525000Y28260199D01*
X29524802Y32260000D01*
X31619928Y32260000D01*
X31619928Y32258000D01*
X31632188Y32133518D01*
X31668498Y32013820D01*
X31727463Y31903506D01*
X31806815Y31806815D01*
X31903506Y31727463D01*
X32013820Y31668498D01*
X32133518Y31632188D01*
X32258000Y31619928D01*
X33782000Y31619928D01*
X33906482Y31632188D01*
X34026180Y31668498D01*
X34136494Y31727463D01*
X34233185Y31806815D01*
X34312537Y31903506D01*
X34371502Y32013820D01*
X34407812Y32133518D01*
X34416080Y32217465D01*
X34474880Y32129465D01*
X34669465Y31934880D01*
X34898273Y31781995D01*
X35152510Y31676686D01*
X35422408Y31623000D01*
X35697592Y31623000D01*
X35967490Y31676686D01*
X36221727Y31781995D01*
X36450535Y31934880D01*
X36645120Y32129465D01*
X36798005Y32358273D01*
X36903314Y32612510D01*
X36957000Y32882408D01*
X36957000Y33157592D01*
X36903314Y33427490D01*
X36798005Y33681727D01*
X36645120Y33910535D01*
X36450535Y34105120D01*
X36320000Y34192341D01*
X36320000Y36187405D01*
X36389014Y36224294D01*
X36615134Y36409866D01*
X36639607Y36439687D01*
X36660498Y36370820D01*
X36719463Y36260506D01*
X36798815Y36163815D01*
X36895506Y36084463D01*
X37005820Y36025498D01*
X37125518Y35989188D01*
X37250000Y35976928D01*
X37340001Y35976928D01*
X37340000Y30794803D01*
X35851570Y29306372D01*
X35697592Y29337000D01*
X35422408Y29337000D01*
X35152510Y29283314D01*
X34898273Y29178005D01*
X34669465Y29025120D01*
X34474880Y28830535D01*
X34321995Y28601727D01*
X34290000Y28524485D01*
X34258005Y28601727D01*
X34105120Y28830535D01*
X33910535Y29025120D01*
X33681727Y29178005D01*
X33427490Y29283314D01*
X33157592Y29337000D01*
X32882408Y29337000D01*
X32612510Y29283314D01*
X32358273Y29178005D01*
X32129465Y29025120D01*
X31934880Y28830535D01*
X31781995Y28601727D01*
X31676686Y28347490D01*
X31623000Y28077592D01*
X31623000Y27802408D01*
X31676686Y27532510D01*
X31781995Y27278273D01*
X31934880Y27049465D01*
X32129465Y26854880D01*
X32358273Y26701995D01*
X32612510Y26596686D01*
X32882408Y26543000D01*
X33088199Y26543000D01*
X31435199Y24890000D01*
X29043072Y24890000D01*
X29043072Y25230000D01*
X29030812Y25354482D01*
X28994502Y25474180D01*
X28935537Y25584494D01*
X28856185Y25681185D01*
X28759494Y25760537D01*
X28649180Y25819502D01*
X28529482Y25855812D01*
X28405000Y25868072D01*
X26205000Y25868072D01*
X26080518Y25855812D01*
X25960820Y25819502D01*
X25850506Y25760537D01*
X25753815Y25681185D01*
X25674463Y25584494D01*
X25615498Y25474180D01*
X25579188Y25354482D01*
X25566928Y25230000D01*
X25566928Y23030000D01*
X25579188Y22905518D01*
X25615498Y22785820D01*
X25674463Y22675506D01*
X25753815Y22578815D01*
X25850506Y22499463D01*
X25960820Y22440498D01*
X26080518Y22404188D01*
X26205000Y22391928D01*
X28405000Y22391928D01*
X28529482Y22404188D01*
X28649180Y22440498D01*
X28759494Y22499463D01*
X28856185Y22578815D01*
X28935537Y22675506D01*
X28994502Y22785820D01*
X29030812Y22905518D01*
X29043072Y23030000D01*
X29043072Y23370000D01*
X31712678Y23370000D01*
X31750000Y23366324D01*
X31787322Y23370000D01*
X31787333Y23370000D01*
X31898986Y23380997D01*
X32042247Y23424454D01*
X32174276Y23495026D01*
X32290001Y23589999D01*
X32313804Y23619003D01*
X32411454Y23716653D01*
X32977952Y23716653D01*
X34290000Y22404605D01*
X35602048Y23716653D01*
X35446038Y24032214D01*
X35071255Y24223020D01*
X34666449Y24337044D01*
X34247176Y24369902D01*
X33829549Y24320334D01*
X33429617Y24190243D01*
X33133962Y24032214D01*
X32977952Y23716653D01*
X32411454Y23716653D01*
X35268430Y26573628D01*
X35422408Y26543000D01*
X35697592Y26543000D01*
X35967490Y26596686D01*
X36221727Y26701995D01*
X36450535Y26854880D01*
X36570090Y26974435D01*
X42394040Y26974435D01*
X42461020Y26734344D01*
X42710048Y26617244D01*
X42977135Y26550977D01*
X43252017Y26538090D01*
X43524133Y26579078D01*
X43783023Y26672364D01*
X43898980Y26734344D01*
X43965960Y26974435D01*
X43180000Y27760395D01*
X42394040Y26974435D01*
X36570090Y26974435D01*
X36645120Y27049465D01*
X36798005Y27278273D01*
X36903314Y27532510D01*
X36957000Y27802408D01*
X36957000Y27867983D01*
X41778090Y27867983D01*
X41819078Y27595867D01*
X41912364Y27336977D01*
X41974344Y27221020D01*
X42214435Y27154040D01*
X43000395Y27940000D01*
X43359605Y27940000D01*
X44145565Y27154040D01*
X44385656Y27221020D01*
X44502756Y27470048D01*
X44569023Y27737135D01*
X44581910Y28012017D01*
X44540922Y28284133D01*
X44447636Y28543023D01*
X44385656Y28658980D01*
X44145565Y28725960D01*
X43359605Y27940000D01*
X43000395Y27940000D01*
X42214435Y28725960D01*
X41974344Y28658980D01*
X41857244Y28409952D01*
X41790977Y28142865D01*
X41778090Y27867983D01*
X36957000Y27867983D01*
X36957000Y28077592D01*
X36926372Y28231570D01*
X37600367Y28905565D01*
X42394040Y28905565D01*
X43180000Y28119605D01*
X43965960Y28905565D01*
X43898980Y29145656D01*
X43649952Y29262756D01*
X43382865Y29329023D01*
X43107983Y29341910D01*
X42835867Y29300922D01*
X42576977Y29207636D01*
X42461020Y29145656D01*
X42394040Y28905565D01*
X37600367Y28905565D01*
X38611009Y29916206D01*
X38640001Y29939999D01*
X38663795Y29968992D01*
X38663799Y29968996D01*
X38734973Y30055723D01*
X38734974Y30055724D01*
X38805546Y30187753D01*
X38849003Y30331014D01*
X38860000Y30442667D01*
X38860000Y30442676D01*
X38863676Y30479999D01*
X38860000Y30517322D01*
X38860000Y32054435D01*
X42394040Y32054435D01*
X42461020Y31814344D01*
X42710048Y31697244D01*
X42977135Y31630977D01*
X43252017Y31618090D01*
X43524133Y31659078D01*
X43783023Y31752364D01*
X43898980Y31814344D01*
X43965960Y32054435D01*
X43180000Y32840395D01*
X42394040Y32054435D01*
X38860000Y32054435D01*
X38860000Y32947983D01*
X41778090Y32947983D01*
X41819078Y32675867D01*
X41912364Y32416977D01*
X41974344Y32301020D01*
X42214435Y32234040D01*
X43000395Y33020000D01*
X43359605Y33020000D01*
X44145565Y32234040D01*
X44385656Y32301020D01*
X44502756Y32550048D01*
X44569023Y32817135D01*
X44581910Y33092017D01*
X44540922Y33364133D01*
X44447636Y33623023D01*
X44385656Y33738980D01*
X44145565Y33805960D01*
X43359605Y33020000D01*
X43000395Y33020000D01*
X42214435Y33805960D01*
X41974344Y33738980D01*
X41857244Y33489952D01*
X41790977Y33222865D01*
X41778090Y32947983D01*
X38860000Y32947983D01*
X38860000Y33985565D01*
X42394040Y33985565D01*
X43180000Y33199605D01*
X43965960Y33985565D01*
X43898980Y34225656D01*
X43649952Y34342756D01*
X43382865Y34409023D01*
X43107983Y34421910D01*
X42835867Y34380922D01*
X42576977Y34287636D01*
X42461020Y34225656D01*
X42394040Y33985565D01*
X38860000Y33985565D01*
X38860000Y35976928D01*
X38950000Y35976928D01*
X39074482Y35989188D01*
X39194180Y36025498D01*
X39304494Y36084463D01*
X39401185Y36163815D01*
X39480537Y36260506D01*
X39539502Y36370820D01*
X39575812Y36490518D01*
X39588072Y36615000D01*
X39588072Y38315000D01*
X39575812Y38439482D01*
X39539502Y38559180D01*
X39480537Y38669494D01*
X39401185Y38766185D01*
X39304494Y38845537D01*
X39194180Y38904502D01*
X39074482Y38940812D01*
X38950000Y38953072D01*
X37250000Y38953072D01*
X37125518Y38940812D01*
X37005820Y38904502D01*
X36895506Y38845537D01*
X36798815Y38766185D01*
X36719463Y38669494D01*
X36660498Y38559180D01*
X36639607Y38490313D01*
X36615134Y38520134D01*
X36389014Y38705706D01*
X36131034Y38843599D01*
X35851111Y38928513D01*
X35632950Y38950000D01*
X35487050Y38950000D01*
X35268889Y38928513D01*
X34988966Y38843599D01*
X34730986Y38705706D01*
X34504866Y38520134D01*
X34319294Y38294014D01*
X34282405Y38225000D01*
X30517322Y38225000D01*
X30479999Y38228676D01*
X30442676Y38225000D01*
X30442667Y38225000D01*
X30331014Y38214003D01*
X30187753Y38170546D01*
X30055723Y38099974D01*
X29977813Y38036034D01*
X29939999Y38005001D01*
X29916201Y37976003D01*
X27871440Y35931241D01*
X27645119Y35999895D01*
X27390225Y36025000D01*
X27219775Y36025000D01*
X26964881Y35999895D01*
X26637832Y35900686D01*
X26336422Y35739579D01*
X26072234Y35522766D01*
X25855421Y35258578D01*
X25694314Y34957168D01*
X25595105Y34630119D01*
X25561606Y34290000D01*
X25595105Y33949881D01*
X25694314Y33622832D01*
X25855421Y33321422D01*
X26072234Y33057234D01*
X26336422Y32840421D01*
X26637832Y32679314D01*
X26964881Y32580105D01*
X27219775Y32555000D01*
X27390225Y32555000D01*
X27645119Y32580105D01*
X27717155Y32601957D01*
X24253998Y29138799D01*
X24225000Y29115001D01*
X24201202Y29086003D01*
X24201201Y29086002D01*
X24130026Y28999276D01*
X24059454Y28867246D01*
X24037362Y28794414D01*
X24015998Y28723986D01*
X24009595Y28658980D01*
X24001324Y28575000D01*
X24005001Y28537668D01*
X24005000Y26160000D01*
X22652571Y26160000D01*
X22602106Y26254414D01*
X22416534Y26480534D01*
X22190414Y26666106D01*
X22135609Y26695400D01*
X22190414Y26724694D01*
X22416534Y26910266D01*
X22602106Y27136386D01*
X22739999Y27394366D01*
X22824913Y27674289D01*
X22853585Y27965400D01*
X22824913Y28256511D01*
X22739999Y28536434D01*
X22602106Y28794414D01*
X22416534Y29020534D01*
X22190414Y29206106D01*
X22135609Y29235400D01*
X22190414Y29264694D01*
X22416534Y29450266D01*
X22602106Y29676386D01*
X22739999Y29934366D01*
X22824913Y30214289D01*
X22853585Y30505400D01*
X22824913Y30796511D01*
X22739999Y31076434D01*
X22602106Y31334414D01*
X22416534Y31560534D01*
X22190414Y31746106D01*
X22125877Y31780601D01*
X22242755Y31850222D01*
X22458988Y32045131D01*
X22633041Y32278480D01*
X22758225Y32541301D01*
X22802876Y32688510D01*
X22681555Y32918400D01*
X21488400Y32918400D01*
X21488400Y32898400D01*
X21234400Y32898400D01*
X21234400Y32918400D01*
X21214400Y32918400D01*
X21214400Y33172400D01*
X21234400Y33172400D01*
X21234400Y33192400D01*
X21488400Y33192400D01*
X21488400Y33172400D01*
X22681555Y33172400D01*
X22802876Y33402290D01*
X22758225Y33549499D01*
X22633041Y33812320D01*
X22458988Y34045669D01*
X22242755Y34240578D01*
X22125877Y34310199D01*
X22190414Y34344694D01*
X22416534Y34530266D01*
X22602106Y34756386D01*
X22739999Y35014366D01*
X22824913Y35294289D01*
X22853585Y35585400D01*
X22824913Y35876511D01*
X22739999Y36156434D01*
X22602106Y36414414D01*
X22416534Y36640534D01*
X22190414Y36826106D01*
X22135609Y36855400D01*
X22190414Y36884694D01*
X22416534Y37070266D01*
X22602106Y37296386D01*
X22739999Y37554366D01*
X22824913Y37834289D01*
X22853585Y38125400D01*
X22824913Y38416511D01*
X22739999Y38696434D01*
X22602106Y38954414D01*
X22416534Y39180534D01*
X22190414Y39366106D01*
X22135609Y39395400D01*
X22190414Y39424694D01*
X22416534Y39610266D01*
X22602106Y39836386D01*
X22739999Y40094366D01*
X22824913Y40374289D01*
X22853585Y40665400D01*
X22824913Y40956511D01*
X22739999Y41236434D01*
X22719386Y41275000D01*
X49307815Y41275000D01*
X49336487Y40983889D01*
X49421401Y40703966D01*
X49559294Y40445986D01*
X49744866Y40219866D01*
X49970986Y40034294D01*
X50025791Y40005000D01*
X49970986Y39975706D01*
X49744866Y39790134D01*
X49559294Y39564014D01*
X49421401Y39306034D01*
X49336487Y39026111D01*
X49307815Y38735000D01*
X49336487Y38443889D01*
X49421401Y38163966D01*
X49559294Y37905986D01*
X49744866Y37679866D01*
X49970986Y37494294D01*
X50025791Y37465000D01*
X49970986Y37435706D01*
X49744866Y37250134D01*
X49559294Y37024014D01*
X49421401Y36766034D01*
X49336487Y36486111D01*
X49307815Y36195000D01*
X49336487Y35903889D01*
X49421401Y35623966D01*
X49559294Y35365986D01*
X49744866Y35139866D01*
X49970986Y34954294D01*
X50025791Y34925000D01*
X49970986Y34895706D01*
X49744866Y34710134D01*
X49559294Y34484014D01*
X49421401Y34226034D01*
X49336487Y33946111D01*
X49307815Y33655000D01*
X49336487Y33363889D01*
X49421401Y33083966D01*
X49559294Y32825986D01*
X49744866Y32599866D01*
X49970986Y32414294D01*
X50025791Y32385000D01*
X49970986Y32355706D01*
X49744866Y32170134D01*
X49559294Y31944014D01*
X49421401Y31686034D01*
X49336487Y31406111D01*
X49307815Y31115000D01*
X49336487Y30823889D01*
X49421401Y30543966D01*
X49559294Y30285986D01*
X49744866Y30059866D01*
X49970986Y29874294D01*
X50025791Y29845000D01*
X49970986Y29815706D01*
X49744866Y29630134D01*
X49559294Y29404014D01*
X49421401Y29146034D01*
X49336487Y28866111D01*
X49307815Y28575000D01*
X49336487Y28283889D01*
X49421401Y28003966D01*
X49559294Y27745986D01*
X49744866Y27519866D01*
X49774687Y27495393D01*
X49705820Y27474502D01*
X49595506Y27415537D01*
X49498815Y27336185D01*
X49419463Y27239494D01*
X49360498Y27129180D01*
X49324188Y27009482D01*
X49311928Y26885000D01*
X49311928Y25185000D01*
X49324188Y25060518D01*
X49360498Y24940820D01*
X49419463Y24830506D01*
X49498815Y24733815D01*
X49595506Y24654463D01*
X49705820Y24595498D01*
X49825518Y24559188D01*
X49950000Y24546928D01*
X51650000Y24546928D01*
X51774482Y24559188D01*
X51894180Y24595498D01*
X52004494Y24654463D01*
X52101185Y24733815D01*
X52180537Y24830506D01*
X52239502Y24940820D01*
X52275812Y25060518D01*
X52288072Y25185000D01*
X52288072Y26885000D01*
X52275812Y27009482D01*
X52239502Y27129180D01*
X52180537Y27239494D01*
X52101185Y27336185D01*
X52004494Y27415537D01*
X51894180Y27474502D01*
X51825313Y27495393D01*
X51855134Y27519866D01*
X52040706Y27745986D01*
X52178599Y28003966D01*
X52263513Y28283889D01*
X52292185Y28575000D01*
X52263513Y28866111D01*
X52178599Y29146034D01*
X52040706Y29404014D01*
X51855134Y29630134D01*
X51629014Y29815706D01*
X51574209Y29845000D01*
X51629014Y29874294D01*
X51855134Y30059866D01*
X52040706Y30285986D01*
X52178599Y30543966D01*
X52263513Y30823889D01*
X52292185Y31115000D01*
X52263513Y31406111D01*
X52178599Y31686034D01*
X52040706Y31944014D01*
X51855134Y32170134D01*
X51629014Y32355706D01*
X51574209Y32385000D01*
X51629014Y32414294D01*
X51855134Y32599866D01*
X52040706Y32825986D01*
X52178599Y33083966D01*
X52263513Y33363889D01*
X52292185Y33655000D01*
X52263513Y33946111D01*
X52178599Y34226034D01*
X52040706Y34484014D01*
X51855134Y34710134D01*
X51629014Y34895706D01*
X51574209Y34925000D01*
X51629014Y34954294D01*
X51855134Y35139866D01*
X52040706Y35365986D01*
X52178599Y35623966D01*
X52263513Y35903889D01*
X52292185Y36195000D01*
X52263513Y36486111D01*
X52178599Y36766034D01*
X52040706Y37024014D01*
X51855134Y37250134D01*
X51629014Y37435706D01*
X51574209Y37465000D01*
X51629014Y37494294D01*
X51855134Y37679866D01*
X52040706Y37905986D01*
X52178599Y38163966D01*
X52263513Y38443889D01*
X52292185Y38735000D01*
X52263513Y39026111D01*
X52178599Y39306034D01*
X52040706Y39564014D01*
X51855134Y39790134D01*
X51629014Y39975706D01*
X51574209Y40005000D01*
X51629014Y40034294D01*
X51855134Y40219866D01*
X52040706Y40445986D01*
X52178599Y40703966D01*
X52263513Y40983889D01*
X52292185Y41275000D01*
X52263513Y41566111D01*
X52178599Y41846034D01*
X52040706Y42104014D01*
X51855134Y42330134D01*
X51629014Y42515706D01*
X51371034Y42653599D01*
X51091111Y42738513D01*
X50872950Y42760000D01*
X50727050Y42760000D01*
X50508889Y42738513D01*
X50228966Y42653599D01*
X49970986Y42515706D01*
X49744866Y42330134D01*
X49559294Y42104014D01*
X49421401Y41846034D01*
X49336487Y41566111D01*
X49307815Y41275000D01*
X22719386Y41275000D01*
X22602106Y41494414D01*
X22416534Y41720534D01*
X22190414Y41906106D01*
X22135609Y41935400D01*
X22190414Y41964694D01*
X22416534Y42150266D01*
X22602106Y42376386D01*
X22739999Y42634366D01*
X22824913Y42914289D01*
X22853585Y43205400D01*
X22824913Y43496511D01*
X22739999Y43776434D01*
X22602106Y44034414D01*
X22416534Y44260534D01*
X22190414Y44446106D01*
X22135609Y44475400D01*
X22190414Y44504694D01*
X22416534Y44690266D01*
X22602106Y44916386D01*
X22739999Y45174366D01*
X22824913Y45454289D01*
X22853585Y45745400D01*
X22824913Y46036511D01*
X22739999Y46316434D01*
X22602106Y46574414D01*
X22416534Y46800534D01*
X22190414Y46986106D01*
X22135609Y47015400D01*
X22190414Y47044694D01*
X22416534Y47230266D01*
X22602106Y47456386D01*
X22739999Y47714366D01*
X22824913Y47994289D01*
X22853585Y48285400D01*
X22824913Y48576511D01*
X22739999Y48856434D01*
X22602106Y49114414D01*
X22416534Y49340534D01*
X22190414Y49526106D01*
X22125877Y49560601D01*
X22242755Y49630222D01*
X22458988Y49825131D01*
X22552126Y49950000D01*
X25181928Y49950000D01*
X25194188Y49825518D01*
X25230498Y49705820D01*
X25289463Y49595506D01*
X25368815Y49498815D01*
X25465506Y49419463D01*
X25575820Y49360498D01*
X25695518Y49324188D01*
X25820000Y49311928D01*
X26384250Y49315000D01*
X26543000Y49473750D01*
X26543000Y50673000D01*
X25343750Y50673000D01*
X25185000Y50514250D01*
X25181928Y49950000D01*
X22552126Y49950000D01*
X22633041Y50058480D01*
X22758225Y50321301D01*
X22802876Y50468510D01*
X22681555Y50698400D01*
X21488400Y50698400D01*
X21488400Y50678400D01*
X21234400Y50678400D01*
X21234400Y50698400D01*
X21214400Y50698400D01*
X21214400Y50952400D01*
X21234400Y50952400D01*
X21234400Y50972400D01*
X21488400Y50972400D01*
X21488400Y50952400D01*
X22681555Y50952400D01*
X22802876Y51182290D01*
X22758225Y51329499D01*
X22633041Y51592320D01*
X22458988Y51825669D01*
X22242755Y52020578D01*
X22233906Y52025849D01*
X25317050Y52038108D01*
X25289463Y52004494D01*
X25230498Y51894180D01*
X25194188Y51774482D01*
X25181928Y51650000D01*
X25185000Y51085750D01*
X25343750Y50927000D01*
X26543000Y50927000D01*
X26543000Y50947000D01*
X26797000Y50947000D01*
X26797000Y50927000D01*
X26817000Y50927000D01*
X26817000Y50673000D01*
X26797000Y50673000D01*
X26797000Y49473750D01*
X26955750Y49315000D01*
X27520000Y49311928D01*
X27644482Y49324188D01*
X27764180Y49360498D01*
X27874494Y49419463D01*
X27971185Y49498815D01*
X28050537Y49595506D01*
X28109502Y49705820D01*
X28130393Y49774687D01*
X28154866Y49744866D01*
X28380986Y49559294D01*
X28638966Y49421401D01*
X28918889Y49336487D01*
X29137050Y49315000D01*
X29282950Y49315000D01*
X29501111Y49336487D01*
X29781034Y49421401D01*
X30039014Y49559294D01*
X30265134Y49744866D01*
X30450706Y49970986D01*
X30480000Y50025791D01*
X30509294Y49970986D01*
X30694866Y49744866D01*
X30920986Y49559294D01*
X31178966Y49421401D01*
X31458889Y49336487D01*
X31677050Y49315000D01*
X31822950Y49315000D01*
X32041111Y49336487D01*
X32321034Y49421401D01*
X32579014Y49559294D01*
X32805134Y49744866D01*
X32990706Y49970986D01*
X33020000Y50025791D01*
X33049294Y49970986D01*
X33234866Y49744866D01*
X33460986Y49559294D01*
X33718966Y49421401D01*
X33998889Y49336487D01*
X34217050Y49315000D01*
X34362950Y49315000D01*
X34581111Y49336487D01*
X34861034Y49421401D01*
X35119014Y49559294D01*
X35345134Y49744866D01*
X35530706Y49970986D01*
X35560000Y50025791D01*
X35589294Y49970986D01*
X35774866Y49744866D01*
X36000986Y49559294D01*
X36258966Y49421401D01*
X36538889Y49336487D01*
X36757050Y49315000D01*
X36902950Y49315000D01*
X37121111Y49336487D01*
X37401034Y49421401D01*
X37659014Y49559294D01*
X37885134Y49744866D01*
X38070706Y49970986D01*
X38100000Y50025791D01*
X38129294Y49970986D01*
X38314866Y49744866D01*
X38540986Y49559294D01*
X38798966Y49421401D01*
X39078889Y49336487D01*
X39297050Y49315000D01*
X39442950Y49315000D01*
X39661111Y49336487D01*
X39941034Y49421401D01*
X40199014Y49559294D01*
X40425134Y49744866D01*
X40610706Y49970986D01*
X40640000Y50025791D01*
X40669294Y49970986D01*
X40854866Y49744866D01*
X41080986Y49559294D01*
X41338966Y49421401D01*
X41618889Y49336487D01*
X41837050Y49315000D01*
X41982950Y49315000D01*
X42201111Y49336487D01*
X42481034Y49421401D01*
X42739014Y49559294D01*
X42965134Y49744866D01*
X43150706Y49970986D01*
X43288599Y50228966D01*
X43373513Y50508889D01*
X43402185Y50800000D01*
X43373513Y51091111D01*
X43288599Y51371034D01*
X43150706Y51629014D01*
X42965134Y51855134D01*
X42739014Y52040706D01*
X42615195Y52106888D01*
X44434580Y52114123D01*
X44418815Y52101185D01*
M02*
